<mxfile host="app.diagrams.net" modified="2024-03-13T23:40:02.470Z" agent="Mozilla/5.0 (Macintosh; Intel Mac OS X 10_15_7) AppleWebKit/537.36 (KHTML, like Gecko) Chrome/122.0.0.0 Safari/537.36 Edg/122.0.0.0" etag="b81b0fCyjVEJzQqIOstd" version="24.0.2" type="device" pages="2">
  <diagram id="jiHu9eOzL7ZhKbqC9A0e" name="InvestX - Visão da Arquitetura de Aplicações (TO BE)">
    <mxGraphModel dx="3131" dy="2437" grid="1" gridSize="10" guides="1" tooltips="1" connect="1" arrows="1" fold="1" page="0" pageScale="1" pageWidth="1169" pageHeight="827" math="0" shadow="0">
      <root>
        <mxCell id="0" />
        <mxCell id="1" parent="0" />
        <mxCell id="y-Us3atDSZpieD9OlrJF-1" value="" style="rounded=0;whiteSpace=wrap;html=1;movable=1;resizable=1;rotatable=1;deletable=1;editable=1;locked=0;connectable=1;" parent="1" vertex="1">
          <mxGeometry x="-920" y="-830" width="1840" height="890" as="geometry" />
        </mxCell>
        <mxCell id="rI7STQke5DLa7KK1Hro6-49" value="Clientes" style="sketch=0;points=[[0,0,0],[0.25,0,0],[0.5,0,0],[0.75,0,0],[1,0,0],[1,0.25,0],[1,0.5,0],[1,0.75,0],[1,1,0],[0.75,1,0],[0.5,1,0],[0.25,1,0],[0,1,0],[0,0.75,0],[0,0.5,0],[0,0.25,0]];rounded=1;absoluteArcSize=1;arcSize=2;html=1;strokeColor=default;gradientColor=none;shadow=0;dashed=1;fontSize=12;fontColor=#9E9E9E;align=center;verticalAlign=top;spacing=10;spacingTop=-4;whiteSpace=wrap;fillColor=#F6F6F6;fontStyle=1" parent="1" vertex="1">
          <mxGeometry x="-876.14" y="-740" width="176.14" height="770" as="geometry" />
        </mxCell>
        <mxCell id="rI7STQke5DLa7KK1Hro6-51" value="Ambiente Externo (Inbound)" style="sketch=0;points=[[0,0,0],[0.25,0,0],[0.5,0,0],[0.75,0,0],[1,0,0],[1,0.25,0],[1,0.5,0],[1,0.75,0],[1,1,0],[0.75,1,0],[0.5,1,0],[0.25,1,0],[0,1,0],[0,0.75,0],[0,0.5,0],[0,0.25,0]];rounded=1;absoluteArcSize=1;arcSize=2;html=1;strokeColor=default;gradientColor=none;shadow=0;dashed=1;fontSize=12;fontColor=#9E9E9E;align=center;verticalAlign=top;spacing=10;spacingTop=-4;whiteSpace=wrap;fillColor=#F6F6F6;fontStyle=1" parent="1" vertex="1">
          <mxGeometry x="-690" y="-740" width="230" height="770" as="geometry" />
        </mxCell>
        <mxCell id="rI7STQke5DLa7KK1Hro6-33" value="Ambiente Cloud" style="sketch=0;points=[[0,0,0],[0.25,0,0],[0.5,0,0],[0.75,0,0],[1,0,0],[1,0.25,0],[1,0.5,0],[1,0.75,0],[1,1,0],[0.75,1,0],[0.5,1,0],[0.25,1,0],[0,1,0],[0,0.75,0],[0,0.5,0],[0,0.25,0]];rounded=1;absoluteArcSize=1;arcSize=2;html=1;strokeColor=default;gradientColor=none;shadow=0;dashed=1;fontSize=12;fontColor=#9E9E9E;align=center;verticalAlign=top;spacing=10;spacingTop=-4;whiteSpace=wrap;fillColor=#F6F6F6;fontStyle=1;movable=1;resizable=1;rotatable=1;deletable=1;editable=1;locked=0;connectable=1;" parent="1" vertex="1">
          <mxGeometry x="-450" y="-740" width="1000" height="770" as="geometry" />
        </mxCell>
        <mxCell id="qIt-0YH0f-4h-8XcCQia-14" value="Ambiente Externo (Outbound)" style="sketch=0;points=[[0,0,0],[0.25,0,0],[0.5,0,0],[0.75,0,0],[1,0,0],[1,0.25,0],[1,0.5,0],[1,0.75,0],[1,1,0],[0.75,1,0],[0.5,1,0],[0.25,1,0],[0,1,0],[0,0.75,0],[0,0.5,0],[0,0.25,0]];rounded=1;absoluteArcSize=1;arcSize=2;html=1;strokeColor=default;gradientColor=none;shadow=0;dashed=1;fontSize=12;fontColor=#9E9E9E;align=center;verticalAlign=top;spacing=10;spacingTop=-4;whiteSpace=wrap;fillColor=#F6F6F6;fontStyle=1" parent="1" vertex="1">
          <mxGeometry x="560" y="-740" width="240" height="770" as="geometry" />
        </mxCell>
        <mxCell id="lhDbJ2xhRQro1HXBfFLg-2" value="Telemetria" style="sketch=0;points=[[0,0,0],[0.25,0,0],[0.5,0,0],[0.75,0,0],[1,0,0],[1,0.25,0],[1,0.5,0],[1,0.75,0],[1,1,0],[0.75,1,0],[0.5,1,0],[0.25,1,0],[0,1,0],[0,0.75,0],[0,0.5,0],[0,0.25,0]];rounded=1;absoluteArcSize=1;arcSize=2;html=1;strokeColor=default;gradientColor=none;shadow=0;dashed=1;fontSize=12;fontColor=#9E9E9E;align=center;verticalAlign=top;spacing=10;spacingTop=-4;whiteSpace=wrap;fillColor=none;fontStyle=1;movable=1;resizable=1;rotatable=1;deletable=1;editable=1;locked=0;connectable=1;" parent="1" vertex="1">
          <mxGeometry x="-122" y="-690" width="532" height="120" as="geometry" />
        </mxCell>
        <mxCell id="y-Us3atDSZpieD9OlrJF-2" value="" style="shape=image;verticalLabelPosition=bottom;labelBackgroundColor=default;verticalAlign=top;aspect=fixed;imageAspect=0;image=data:image/png,iVBORw0KGgoAAAANSUhEUgAAAQQAAABGCAYAAAAq7+rZAAAAAXNSR0IArs4c6QAAAIRlWElmTU0AKgAAAAgABQESAAMAAAABAAEAAAEaAAUAAAABAAAASgEbAAUAAAABAAAAUgEoAAMAAAABAAIAAIdpAAQAAAABAAAAWgAAAAAAAACQAAAAAQAAAJAAAAABAAOgAQADAAAAAQABAACgAgAEAAAAAQAAAQSgAwAEAAAAAQAAAEYAAAAAGjWiXwAAAAlwSFlzAAAWJQAAFiUBSVIk8AAAG/FJREFUeAHtnVdzI9l1xw/QAJgzZzh5RhukDVqtVmElW1aw5bKtKssqq+wHv7j0IfxdXH5x+cnlF5fLrpKscklWsJIlrTdqZzbM7uRIcjhMQyI0/P+dRmNITpMESRDkLO6dAQF0uOH0Pf8T74VZKIECgQKBAg0K5HivqwSKBAoECgQK5AMJAgUCBQIFUgoEQEgpEd4DBQIFLABCmASBAoECTQoEQGiSInwIFAgUCIAQ5kCgQKBAkwIBEJqkCB8CBQIFAiCEORAoECjQpEAAhCYpwodAgUCBAAhhDgQKBAo0KVBoftrvD+RCel7kfjcU6g8U+OhSoBbHFtdiH2Aul7Moyhvv7SqdA4T29bldYw/1BAo8VhRghcHKatmWlh+w3MBKxYIN9Pf7e7sG0jlAUI/jmUWr/Ohti6/PJtpCLLWhjcso6uWq5Yb7rPD5Jy16+pjlB3vNhKBpqT8oW+Wn5y2+OmuFl3XNU8cs11s0y7cXrarv3rTq/31o9ekFy430W/Hrz1t0YjztRnveKzWL7y9b7XfXrPr2NbPVimi5h6qhQSGyXH/JcqMDlp8asfzJcYvOTOhZtZc+e+hlV98ai1/uzs7Zh9duGprC6NCAPXH6pI2PDLWNLh0FhPqdeVv5xx9b5bcfWH5YzMpEa+Ncqy+uahKPWW8x0oQetjqTew0g2NKqrf7rr63yPxes7+++afnjY5brgQTt6wTKXOU3F23lH35otfduWf7cpA2oL3kBQvtaEe8DCLfvW/m7r9rKv/xCaFt3Zt7xzEhNOQChp+gAFh0fFVhOWeFTZ1VvnNCpJDq1GTh33Ncuv6EmUwFAOP/BZavWanZscsKOTow/xoBQrVosqYkoi547Zbmjw5rEPclEQ1vYY6mvVCw/PmDRx456vbn8Q+2Aquua3PWFFavPLJlJW4CJ9iRVN/SX9muX7lj1jSsWv3vLNYT6QK9Vfvm++jVohRfONgBow427+YpmVRUo3Fuy+tyyFT5zzqJPi4GBHc7pf0tFl+e4vFEfY7DFFe9z5X8vWv67r1nxSx+30p9+yjWGnMA2lIOhQF6AjL8ATYEXz6ydQoZRdVRDMMSnkM2Z44tPW/TsSctPDgoQ8s6seyZzNXYTIDo9YTkxYpZEcwcMkg5Ktpma8a05aR/vWHxp2myo16LRfstNDlnt9ctWGeyx6PSk5aSKt6/krK4xo+oXPvsxK337ZY1JxxpOp1baaZJA99SXVx3EapfuWv3Vy1Z7/7bVLtywukAnN9BjRZ7Zk1Ntp1sr/ezGa6oC/AqvWsUBgO/4EHAkCg4cEBblT1hYWnYhEEWRFQsFnZeGvEttrrOAgNgC1aQV5GWbFp49IVVaajsD3MEk3nRyUDeEQPUVk2Tavk0OaH7YtLqdnEAgVy/etvK//dbBrSiJGskkQeJWvveqVWTjF//oebfNd1LvttdK67EoZ/lToqc0BMkQga6Ye9sbkwuaVBDt/BnIFAEYYoFL7c2rVlbfY5k+D/7+BxZLE+n92y/L3OtrsfZw2W4pEOt5LIjZp+fu2827M7b8YMWn8+z9BSmGer6cFxBc+PCKXb897efGhofs5NQRG5FvobentKumOwwI6iMztSTnlSRoTmp0OrmaE3NXw9jZTe0M09AyjBTf04OSg6/2zo1EWv/JC266xNdmrfrfb1l8ZcYdjXk57KJzR9srZaUV5ORAzaMVNcpu6Ln2HgwD17QKOfe7lH903qqvfGDVzz2RALmcpe0sTHCkYbkiAK3ItNR3nhOSriiJ19srDWuDCZjVfkVmKVIUG1tVqNSlKOatVCq6N76gumKBKNfQHs65ZFKuHf36mjmT9EX1yLNfcCmscN/6y7b8RptljevBqvxY5bL3DUnfUyxZj/rGa928VOe57t78gl27dcfuLy5JEYwMLcFNX7W2ovO3Zu7Z9L37PsZVCR1AYbB/94DdeUCAijwpNAIN7qNQ6vL2V8QwNUUWsLGLz520nq8+KwfdgNXGBACfOmNVOVLL//WmSaezvrNHsrWXPRADUGL+72SSbtdcXkxf+tbn5MCMrabITO36PY3hDUVvpOG1GRBgTib/HU1wXnyPCmKYQtHGRgbt7MnjNjywNQgBAtRx+cYdl541fcfWRloePzJpUxOjLj1XyxW7KiabmZu3JUlewCcv8NmscA5m7BMoTYyNiOmGnelKO/Cn0CbS/vrtu+4YRMr39/bakfFRm5ocsym9AzRrC2wS1wSU0toAybpYJuZPozgbAXwaY172eEWfATjMid2W9T3YbS27uY8+M6KPQKnjO/jBm64FYMvj3AMMKPnJYSt++Vmp4ZJar16yKj4FmQ6RVPz2lv2hZU6SK3rmhBVePGseTpU/JP7yM+3tumpzqb1Sdia9JqZBmsIgBUnRxQcPPN5elBnYW1LkKIN58cDfX1iyW3dn7erN2za/uOxsQb0wHq+xYfmrVACOuflFuy3g4R6YCE1ks+kIILg0V9uo7GMjwzYpYCDch3q+FZh4g/oD8NyanrUbd2bsriQ6/QVgGCd1j6tvawGBMfYJyCZGh+1jp443TIacA960Ig3AAvfTj6GGRoB2MCTQBLx2Ww4OEHbb48N0HzNID7Qm30HlF+95DkTpm5+xwkvnmr10jeEPn5MvQYDw83es9pbyBl6/4ppC1FYHY7PJtn9wJ7ByO+Ib9+QwlcNxXk6sNhfgDEZdkdo7v/RAZK1KmYrEOIkpMTw44A4zpHypqNyRDQVTAwa/KjC5I4Z5IHq7803PCC1htVLWe6KRAhKo4zApdjqAEIkBt4NUmPSW7HnA5diRcWfU/r4eqf2P9mdt92h/Xio/gHBPQIS5gomEZuKApTrOHDsiAFDETW1QaGtwoM9B4YTaoo9oTRc+uGL3BEp1jQUgePaJM3b62FGvj/HiVMy3YFqt7d/azwEQ1lJjp5/l4SekWPnle26G4oF3DUFRjmbRQyKuX5AZUfjkaaspF6P8vdc8/BhNvdC87DB/IMKQ1xgkejziYIQm213EHDAkKjFM4lK7ltd7Tcy96pIVO3t0iMy8jQxYlwR94M43QGEV9boBBF6f6uS7/jdLyoy0RSowzuhI44OZ1hoPMDN98ev0mfvqKyt2e/qeM/BRAdS4NIbN/Bvct6z+Awj3BQb4EKiDAgCi/XBuQSDY39crX8JDZyCSnpdgwktZZgc+jKTv8rGoz4DIgO5rVwmAsAdKxpKUZWVeVl65ZNETR6348lNWwGGYgdCR/AbFr3/S6j94y7Mlo7OTVpIpISN5Dz3o0K0CtTSjsy5mE4fsQ8MPJSPSEYmdhM6kJYipsPf7pSKfODLhTJOCAowOYMzif5hNTACYE+b2GuO8O9w8+rKG02kDVZ9XrOOE6oYH+72NnJyQfr1G6ZJZY14RI6+IId0voTYXlpdlPsw7k9Ovgb5sRx5M72AgpgcYMBVS8KDvVfkH0FToP87AEibRJtRVV92E6hUwVuPIgXEv2kBWM4/BbMzq9sEfI026dvGOVX71njIG56z3O1+14tfE4Js4mnITg1ZU5KE2o2iEnI/V15Sb8OuLSlY6rVThrZ1lBz5aScZ6wwHs4dwMwGt3H1NhDhPAODjl5hYWPcQG804pQ49zMJibCjfvOmOlmgDnWi859/KfPT6lsJ2AWp5/mBadBYcddv7tmVm7KZXfHZHLSm5TnzBTMDnGZAJsBgjcSxQAU6EsM4j7HIT0zmeACRMCcwJAGJUvYWNCXTqOnMY9Kr8FPgWACjOqv/ehRpFet5f3AAi7oZ4eZO39Wx45iO/OO0MXv/CUsi9PuumQBfE5pf5Gn0iccxWtEYhvzllZ4UjCr+QPHOaCQ7Su/krH9VCxcsM71l0YBsZB9V8SI97AhpeKPDo06EycOutg1lXWsuj6VsEA0EmBpxAV5MAbMUCh+IhJIpwX0K8KABJnZXInqjthQEBpswKz40Scc+dl3W38Hs0F8bOYmjArr6rN6JpJtQ/w4SzMKgDJ6NCQnTuVOGHRFNzvkHXxLo8FQNgF4eqSPpWfvWPl779u0TH5BxSbZxHQZsieNoHQKnz8uJX+/CWr/OS81iG8JpA4nkQl0osO4Xt9bsmqSlLy1HCZPizY6mRBfSeXAAmLtB2RZJyU3V6QPY3WQDiPaEFV5xPFIGXzHakJWw6JCEBJL1f3VT0toK6T37A2OrCxkiX5CFh/MK/+cddAf6/3H7MEsMDswIEKsKW+hILMHZyDGwuAMISjEa1AHcCk2ktEYWP9fH+01ayrOnVMaFsv6yUPseCz6XF9pHmes4iRIyOxT8RpVSQ8UtHODyCtalenpfZfkpZw25m7qCgCSVatlOj0uHwJz8ncUGTi/JvOaIWXbihZSYym8Ry2Ul+VaXT+uiclmTJMcZrmtQalE4XHTA4BjAfzEGfHDoeJ0BRwqiGxCSGivnMdjITjDVvfnYtNHeDRHq+FC5x/LCsmrNijNt1kcM1EpoEYFlMBxx/MS7slaRQ48wjz9WY8N7QHsgsBLNKLiWoAHpgFRyfGvJ9kGuKLSJKVZH7o+735eWf4LEBgBKmj8dHRtOfI4QEEPLhSTWN54ePLCm1pZaIpMeWRIkLraTnzREp7ZgkzqbudKvEVgYGiCoAB7Ra++JQv/slpErZScsOKE39WGsVLyvp7TaAiyVv5z9ct/1dfsNypNi+RbqVDW1xTVwiQ3Am0IfpJOjbgl+9AP/Huo/4npkFJavecVSVtAeT7AoFLyjUgOoBDEU89YECOQuLg63XgWBVwcP1WJZk5hDarrtpzORLaHZr6QgLRg4YknxFYwOQFtQUQkIdAbgNtbiw1CTdAZGaOVGMJOV3AeIa0fwH+D8wCgO3arbs+jlqu5oCANjEic4j6D6K0Nos70TMRv76gmPD7N5M9E5Ts457tjW1rogheXW0tfuFJLS+WZBVAdKrU3r4uU+ENw2woKKrAvgutgkHax7wkRVG5CrG0hOqvlcGoMCT+h+KxEY2FNRjplQfwrufACkoWatXe0FqGn7xtNa3cpH8+Xpk4abr5fvbOGVkMNCgGIvmH7zApUhqmRKLjWMOGxwYnJEmSDtmMXMe5xP/QQi/VTlXXT99T5qL8FGgAOuTFMwUFFsseZSCXIXbNgAxDXvgzsh4YacWYMmROAiqe2KR5y1i4D60irtc8sjG/pOQoXbOocZFDMTU57q+DmAaHCxC0JNknojzwrLhjs471xBYYKFEFpxarCFkYJaomT64TfxV/9+jAzy5YQdl6pW991hcw7abpgpZ/1/9CDqkL2kxFKwqrH9yx6IUzFh3RZheSUAdSiJzISVrTBi/kVlR/8a5Vf6O9K56estLffMlK0g6iifZtxrHVGPHwwxCo73jeSVIia3FV0hqJDWOmTx6wABBOTk24531+Ydm1iK3qX3uOdqgPxuS1VUETIVeAzUkAq/XzM7kTZyG+Aw9LyndA3fQfrQCTAT8A/gA0GiIFg7oGcwFtB60Cf0hZgLI2J2GrPrXz3OEBBBE6T2hO6nReThPWB6AJPFIAAEwJ2bPE/ju1Pr8+q92eXlG4UIuXMFmKz5+yksyFvNYq7KawyKmokGP9O1/xNQIFrXdwjSgVTTutNOWOjPvIMKy+e0PLsK9aTYut3P8iKejF2xP7sYxavhvoHs9LNZf5RmQEByhO0+LXBAaswehUaYyH7uFNJ0eAcOO0GAbfgCfnuNYgBhVooLofU44C6jsaxENTYQvCNMaSXoHfAIZvUKY5UsDJowlibLQObH5WGNIHLp6QgxNm5z7aJVKA3wDGxlnIMXwhgAHj4RhaDJoNfgVSlPFfrEpLINdh3n0Ji562vJkvodm5Nn/I4Lg2t9BqdSJQfkyrH/UqSFIetlK7PO0Le/BxeNbhi2fkXNvD3gYCFe7v+esvNmL8UlPxhaSMugsCMLGZlBtLTJRAKzHL339NadNXtTRcgJqaWT6LNZE1OaXbWg7bfUgSTGAbaYylb3zax8tzOYiCdEXdJqcfZrx6e8jDf75iUCCGkw0/A446wnYwWmIqCOC8ZFFk/UhgWCQ2oEM+QUQd+pcABZmKCZPj2AQMeL92566Yt+ztR4oYoKEkjsiE4XEmYn7g7IzykYNZXu+YPDcEJvQTjYBFS/SXwl/XVJTERDQFp2X3AoKT5HD+ISmnKk97RVmGeWUY9mivAHIK2lFI9PFkHypzibP9BM5sV7dtdmdOWgxp08xwFik56EgSNgs3Ihl7lQcPKMssyMt0YTMXHLfsU3lQBemMWE0Z/9yJKZEptuu32ANAC4Rki2MqnNFxYvJkFO6mkPnImoAkManoAOGAoGdCDgSPZlEM/u7lq0qjnraa8BMtgNWLSP8RpVQDJvQNtf/29JxrCjA7/E7a8Yx8CpgSREEgOX4OtB3Wb6Bt5AFpXUzkhEQonJaJVrHZk93NSLe+5/BoCFv388DOsjFrVRuEVOVMjGU2sJ1Y8SvPJP6LdveKmbMPBfPEtGIRjcSjNzSTtsWs57vMA1+zcET7P7I57WEpzpV0UXn7UsuPyyyAqebw3scFmQpD2ltw3I6OjbrUdTW+cc92Q+Ayv1R/ABwY8JQyFXsFLKnU9joaQJ3Y+PclvbXaUFoDKj9hyklsfn2Wa8Df791fdFCoCDXQPCicTxKb1vsokna4JtFS+LSktRJEJ/ArYI5gVqzrDxXuUwmAsA1h2T6s/B+v+O7GpBkXPqPlzco01Aza5s7Dc5r8BqS+sSRbUikpyURt9hJTBVX5sI0r4RWX0oUc5oGSkmQazI7NOwBMjGsZskABKU1JfActIkJj8KkUh3eTzxto02Bq2sBHgSbCykNemAQkRLEqEy0AsCLBCHMB0ADK0AToF7jSgKBGy7wlbdEEyVcUzAj8DJgXvLMuA8DqRAmAsA2Vax9qvYK87azwK33jxWRp8z4xDdoIKc2aQb4DUm5ETig2od1rgdFlvz5OILZ+yCkzSZGRao8kx0TAt0DWIl77tCRMl35r/R3eRXWHkWFg7P4EXGBhciK0L4OSiGB4HIyoFmgtztDiZoAEyY7G4IlIAgrux7eA2l+UmYDfIKvQZ3wHaCAkXpETkWYx4iwd0P0BELIo18ljyjGvKiOxor0LYkKCUrmLf/aiv+9XN1wb+eHvfL8BMhrZBp12Q1lPARJ32FINdZzt1Yg+7KY02NlvJVTINmUsMkJFTzMVEeowK2CRLK6acVW+rrY9t0DXsh8CfVnA9teyaI9y6B6Apb9v0J46e0Kbqgy5gzBR/ak1KXz35CdFeK4rSenS9VtW1umqzA3yGAAT8hIAlk6UoCFsQuVYalvlpxeUOKQt1OVYYwFSdEa7JmeFQjepY8eHcSppOTQRDbZcI407r99HOHRq/I4HtvMbYBlnm4e806wEzzvrB7LlbXKf3y/Rm6jqGZU06k/PoP7fmZlLVHQcrGLUtOCXwAeABCckSBIT9Za0UYrnEZBXoEeHBoFDkUgEiWuEMAflaGTJNluveUhTx9EIKN6C2vGMS91D/WwfR2Yj5gZhS3IZyLsAGDpRAiBsQuV4dskqP1aWnpyJLFsuao/EfDvU903a4zBOvYIyAWtKFy5r8RNLpgtffcZ/9amT2ZhbdLEjp2CU9LUZ1zszbdKb9F6YOn1lXerX6Q+8z9oHJDKv7UpR6xjQGvAn+D6NMlsACHIJ7ivcCHig4rMYiszEcYVMSVneqpTk1MU84HrWTgAODkDSOqgX5ykaCX3ez5J4Mfazhcew7prSdqu/vajtwhTakkOu9PuKLMiZuNleB+0aogOC76x0yn/Epqb2K0qTjq/OtKuJw1uPZrr7Nd3fQYJQg5kfQkNLfXfBvgYIUOVTUHjITMnqSVan6mzzPEyNZIbZ17087JisrSBkSL7CKW159tSZk/bk6ZP+nYjA3OKipzgj4fF1sJvSEUU/yEjcrpS0mSz+kKNKax7UikjGgSJBkhMbvxCyjFXvfpcu1RBSRTGDvHLokZ5c1Q+uUJDYJEp1ZMkvk1dJQZFyBYq/97Sx5wK7HLO7EqshP8oFxoXZBpWMg6Qke48wI1KYtN+1KvxWdKAeGJC04rEhVkhWXW2nntQxh3+AulH34Tps/c0cft6WmBPgQELDuDgxiXQQ7mTH5GTzFoUT1TbJREQjWJx08uikr6/AQdlKwSwgwSrdWQmthdwGohdoC5gurdXUSmvZ13QeEODFLfgxu5ttPrpF+7GcOxVthsqPwrKYp/jHn+z4jkb8FF3p25+31X/6qdYTaE3By1fkwzjnqd3ydj1KjMNA00d7taMjMNvQwIAnBw2KmQjl4SvAGcdmozBxK4XNTVjkhGMQZkXSe2RCKjcgQAF42JYdNX6lLHtfjLYp4DTAAGZnLUUCVOzi3OP5CvgF6DuLqs6dOOZAoeocFMigBHS2BJs1g2LtwpFx+atkbhzVO31n5SWgQF8Bu/0unQUEJi7xHQ206VnZ7xFuqJ8tsfihC2+f/qwp/Jpy9bx+bEVZieTzF5S6W5CkzmlX3E4W1nTwC9YOBr+6aNW3tOpQIFX6g08og/DhXgRM5IOmZ7voAsOzmzEggB3tmXtiAMJ1HGuVqWBa7mcVIhKWRwzTYs+jaVBwSBK6HB7sc+3AD27yJ2FBzArVo7p7BTgbN0QhJRnpjmZSG2duKTMcH4Ku3Yl2AxCwkzKAxcatCVDR/2TDFEKf+106CwiMhkmsFw/qQDQF7EFAyTtAJx6Wmn6ktfzv+ik2JSMVtHiJdF92RDqIEim7kH0Tah/e9dWHq//8cyvIdFgLCN6vFGCzBnQQHd9lm0jogtZYRJF+yUh+m7S4/a8vm0rw9MLGuzO/M2KhSRGYOrk/YW/AhTZ66g+v2VDNI1+TO9N61p8GzPIyE3pKjXlNe7w0plb7TY2ADtpGbz75NSeOUXZTV3Lnzv92FBCQfD1/qV8CEgEL7GMgr3onS06rKItf4/cV9XPnct75bkt4shqFn0NDXSerL6e9CVhNeZCl8PxJ7R71khYkaUNRTRT61yySdvxegkc/xrTpyjPaz/ExLwkDMYiHz2Q3Q2qFEV39hgPbUKgGH4NzdBvqa2ffdtodp4hUkwx5udOqWrgedV0JHhSP57O6r00PpYXWE81Ea/6lJybts+pvbfs67rsLQw26JtXNXd8tVb4PF9EfvegvJceW7QLTZoGeCnE1x7PJjs/N68OHQIFtKNA5QABz1jLfNh3r6OkGAGS2edj6fdj6k0m0cPBxpUDnAOFxpVDod6BAF1Fgjf7ZRaMOQw0UCBTIpEAAhEyyhIOBAt1JgQAI3fncw6gDBTIpEAAhkyzhYKBAd1IgAEJ3Pvcw6kCBTAoEQMgkSzgYKNCdFAiA0J3PPYw6UCCTAgEQMskSDgYKdCcFAiB053MPow4UyKRAAIRMsoSDgQLdSYEACN353MOoAwUyKRAAIZMs4WCgQHdSIABCdz73MOpAgUwKBEDIJEs4GCjQnRQIgNCdzz2MOlAgkwIBEDLJEg4GCnQnBQIgdOdzD6MOFMikQACETLKEg4EC3UmBAAjd+dzDqAMFMikQACGTLOFgoECgQKBAoECgQJdT4P8B1NQXnZSJLoUAAAAASUVORK5CYII=;" parent="1" vertex="1">
          <mxGeometry x="-894" y="-810" width="185.71" height="50" as="geometry" />
        </mxCell>
        <mxCell id="rI7STQke5DLa7KK1Hro6-46" value="API Gateway" style="sketch=0;points=[[0,0,0],[0.25,0,0],[0.5,0,0],[0.75,0,0],[1,0,0],[1,0.25,0],[1,0.5,0],[1,0.75,0],[1,1,0],[0.75,1,0],[0.5,1,0],[0.25,1,0],[0,1,0],[0,0.75,0],[0,0.5,0],[0,0.25,0]];rounded=1;absoluteArcSize=1;arcSize=2;html=1;strokeColor=#ACDAFD;gradientColor=none;shadow=0;dashed=1;fontSize=12;fontColor=#9E9E9E;align=center;verticalAlign=middle;spacing=10;spacingTop=-4;whiteSpace=wrap;fillColor=#E3F2FD;rotation=0;fontStyle=1;horizontal=0;" parent="1" vertex="1">
          <mxGeometry x="-286.5" y="-690" width="40" height="690" as="geometry" />
        </mxCell>
        <mxCell id="amGkfeJqmkxIpBcrSF1G-1" value="InvestX - Visão da Arquitetura de Aplicações (TO BE)" style="text;strokeColor=none;fillColor=none;html=1;fontSize=24;fontStyle=1;verticalAlign=middle;align=center;" parent="1" vertex="1">
          <mxGeometry x="-670.5" y="-810" width="1540.5" height="40" as="geometry" />
        </mxCell>
        <mxCell id="APmiwgG9QhnnWm-MluCl-31" value="" style="group" parent="1" vertex="1" connectable="0">
          <mxGeometry x="-655" y="-475" width="170" height="60" as="geometry" />
        </mxCell>
        <mxCell id="APmiwgG9QhnnWm-MluCl-27" value="" style="dashed=0;strokeColor=#dddddd;shadow=1;strokeWidth=1;labelPosition=center;verticalLabelPosition=middle;align=center;verticalAlign=middle;spacingLeft=5;fontSize=12;whiteSpace=wrap;fontStyle=1;movable=1;resizable=1;rotatable=1;deletable=1;editable=1;locked=0;connectable=1;" parent="APmiwgG9QhnnWm-MluCl-31" vertex="1">
          <mxGeometry x="10" y="10" width="160" height="50" as="geometry" />
        </mxCell>
        <mxCell id="APmiwgG9QhnnWm-MluCl-28" value="CDN /&#xa;Web Firewall" style="dashed=0;strokeColor=#dddddd;shadow=1;strokeWidth=1;labelPosition=center;verticalLabelPosition=middle;align=center;verticalAlign=middle;spacingLeft=5;fontSize=12;whiteSpace=wrap;fontStyle=1;movable=1;resizable=1;rotatable=1;deletable=1;editable=1;locked=0;connectable=1;" parent="APmiwgG9QhnnWm-MluCl-31" vertex="1">
          <mxGeometry width="160" height="50" as="geometry" />
        </mxCell>
        <mxCell id="APmiwgG9QhnnWm-MluCl-30" value="" style="sketch=0;pointerEvents=1;shadow=0;dashed=0;html=1;strokeColor=none;fillColor=#505050;labelPosition=center;verticalLabelPosition=bottom;verticalAlign=top;outlineConnect=0;align=center;shape=mxgraph.office.concepts.script;aspect=fixed;" parent="APmiwgG9QhnnWm-MluCl-31" vertex="1">
          <mxGeometry x="5" y="11.129999999999995" width="30" height="27.74" as="geometry" />
        </mxCell>
        <mxCell id="qIt-0YH0f-4h-8XcCQia-11" value="" style="group" parent="1" vertex="1" connectable="0">
          <mxGeometry x="-429.5" y="-477.5" width="70" height="85" as="geometry" />
        </mxCell>
        <mxCell id="qIt-0YH0f-4h-8XcCQia-12" value="Load Balance" style="strokeColor=#dddddd;shadow=1;strokeWidth=1;rounded=1;absoluteArcSize=1;arcSize=2;labelPosition=center;verticalLabelPosition=middle;align=center;verticalAlign=bottom;spacingLeft=0;fontColor=#999999;fontSize=12;whiteSpace=wrap;spacingBottom=2;html=1;container=0;" parent="qIt-0YH0f-4h-8XcCQia-11" vertex="1">
          <mxGeometry width="70" height="85" as="geometry" />
        </mxCell>
        <mxCell id="qIt-0YH0f-4h-8XcCQia-13" value="" style="sketch=0;aspect=fixed;pointerEvents=1;shadow=0;dashed=0;html=1;strokeColor=none;labelPosition=center;verticalLabelPosition=bottom;verticalAlign=top;align=center;fillColor=#8A8A8A;shape=mxgraph.azure.load_balancer_generic" parent="qIt-0YH0f-4h-8XcCQia-11" vertex="1">
          <mxGeometry x="20.200000000000045" y="12.5" width="29.6" height="40" as="geometry" />
        </mxCell>
        <mxCell id="qIt-0YH0f-4h-8XcCQia-6" value="" style="group" parent="1" vertex="1" connectable="0">
          <mxGeometry x="-198.5" y="-530" width="70" height="85" as="geometry" />
        </mxCell>
        <mxCell id="qIt-0YH0f-4h-8XcCQia-2" value="Load Balance" style="strokeColor=#dddddd;shadow=1;strokeWidth=1;rounded=1;absoluteArcSize=1;arcSize=2;labelPosition=center;verticalLabelPosition=middle;align=center;verticalAlign=bottom;spacingLeft=0;fontColor=#999999;fontSize=12;whiteSpace=wrap;spacingBottom=2;html=1;container=0;" parent="qIt-0YH0f-4h-8XcCQia-6" vertex="1">
          <mxGeometry width="70" height="85" as="geometry" />
        </mxCell>
        <mxCell id="qIt-0YH0f-4h-8XcCQia-5" value="" style="sketch=0;aspect=fixed;pointerEvents=1;shadow=0;dashed=0;html=1;strokeColor=none;labelPosition=center;verticalLabelPosition=bottom;verticalAlign=top;align=center;fillColor=#8A8A8A;shape=mxgraph.azure.load_balancer_generic" parent="qIt-0YH0f-4h-8XcCQia-6" vertex="1">
          <mxGeometry x="20.200000000000045" y="12.5" width="29.6" height="40" as="geometry" />
        </mxCell>
        <mxCell id="qIt-0YH0f-4h-8XcCQia-38" value="" style="group;fontStyle=1" parent="1" vertex="1" connectable="0">
          <mxGeometry x="210" y="-525" width="70" height="85" as="geometry" />
        </mxCell>
        <mxCell id="qIt-0YH0f-4h-8XcCQia-36" value="Repositório de Dados" style="strokeColor=#dddddd;shadow=1;strokeWidth=1;rounded=1;absoluteArcSize=1;arcSize=2;labelPosition=center;verticalLabelPosition=middle;align=center;verticalAlign=bottom;spacingLeft=0;fontColor=#999999;fontSize=12;whiteSpace=wrap;spacingBottom=2;html=1;container=0;" parent="qIt-0YH0f-4h-8XcCQia-38" vertex="1">
          <mxGeometry width="70" height="85" as="geometry" />
        </mxCell>
        <mxCell id="qIt-0YH0f-4h-8XcCQia-37" value="" style="sketch=0;shadow=0;dashed=0;html=1;strokeColor=none;fillColor=#505050;labelPosition=center;verticalLabelPosition=bottom;verticalAlign=top;outlineConnect=0;align=center;shape=mxgraph.office.databases.database_mini_1;aspect=fixed;" parent="qIt-0YH0f-4h-8XcCQia-38" vertex="1">
          <mxGeometry x="20" y="10" width="30" height="30" as="geometry" />
        </mxCell>
        <mxCell id="qIt-0YH0f-4h-8XcCQia-39" value="" style="group" parent="1" vertex="1" connectable="0">
          <mxGeometry x="210" y="-318" width="70.5" height="85" as="geometry" />
        </mxCell>
        <mxCell id="qIt-0YH0f-4h-8XcCQia-40" value="Repositório de Dados" style="strokeColor=#dddddd;shadow=1;strokeWidth=1;rounded=1;absoluteArcSize=1;arcSize=2;labelPosition=center;verticalLabelPosition=middle;align=center;verticalAlign=bottom;spacingLeft=0;fontColor=#999999;fontSize=12;whiteSpace=wrap;spacingBottom=2;html=1;container=0;" parent="qIt-0YH0f-4h-8XcCQia-39" vertex="1">
          <mxGeometry width="70.5" height="85" as="geometry" />
        </mxCell>
        <mxCell id="qIt-0YH0f-4h-8XcCQia-41" value="" style="sketch=0;shadow=0;dashed=0;html=1;strokeColor=none;fillColor=#505050;labelPosition=center;verticalLabelPosition=bottom;verticalAlign=top;outlineConnect=0;align=center;shape=mxgraph.office.databases.database_mini_1;aspect=fixed;" parent="qIt-0YH0f-4h-8XcCQia-39" vertex="1">
          <mxGeometry x="20.142857142857142" y="10" width="30" height="30" as="geometry" />
        </mxCell>
        <mxCell id="APmiwgG9QhnnWm-MluCl-49" value="" style="group" parent="1" vertex="1" connectable="0">
          <mxGeometry x="-14.5" y="-310.5" width="345" height="70" as="geometry" />
        </mxCell>
        <mxCell id="APmiwgG9QhnnWm-MluCl-45" value="" style="dashed=0;strokeColor=#dddddd;shadow=1;strokeWidth=1;labelPosition=center;verticalLabelPosition=middle;align=center;verticalAlign=middle;spacingLeft=5;fontSize=12;whiteSpace=wrap;fontStyle=1;movable=1;resizable=1;rotatable=1;deletable=1;editable=1;locked=0;connectable=1;" parent="APmiwgG9QhnnWm-MluCl-49" vertex="1">
          <mxGeometry x="10" y="10" width="160" height="50" as="geometry" />
        </mxCell>
        <mxCell id="APmiwgG9QhnnWm-MluCl-46" value="Função&#xa;sem Servidor" style="dashed=0;strokeColor=#dddddd;shadow=1;strokeWidth=1;labelPosition=center;verticalLabelPosition=middle;align=center;verticalAlign=middle;spacingLeft=5;fontSize=12;whiteSpace=wrap;fontStyle=1;movable=1;resizable=1;rotatable=1;deletable=1;editable=1;locked=0;connectable=1;" parent="APmiwgG9QhnnWm-MluCl-49" vertex="1">
          <mxGeometry width="160" height="50" as="geometry" />
        </mxCell>
        <mxCell id="APmiwgG9QhnnWm-MluCl-48" value="" style="sketch=0;aspect=fixed;pointerEvents=1;shadow=0;dashed=0;html=1;strokeColor=none;labelPosition=center;verticalLabelPosition=bottom;verticalAlign=top;align=center;fillColor=#8A8A8A;shape=mxgraph.mscae.enterprise.code_file;gradientColor=none;" parent="APmiwgG9QhnnWm-MluCl-49" vertex="1">
          <mxGeometry x="10" y="9.699999999999989" width="30" height="30.61" as="geometry" />
        </mxCell>
        <mxCell id="qIt-0YH0f-4h-8XcCQia-8" value="" style="group" parent="1" vertex="1" connectable="0">
          <mxGeometry x="-198.5" y="-328" width="70" height="85" as="geometry" />
        </mxCell>
        <mxCell id="qIt-0YH0f-4h-8XcCQia-9" value="Load Balance" style="strokeColor=#dddddd;shadow=1;strokeWidth=1;rounded=1;absoluteArcSize=1;arcSize=2;labelPosition=center;verticalLabelPosition=middle;align=center;verticalAlign=bottom;spacingLeft=0;fontColor=#999999;fontSize=12;whiteSpace=wrap;spacingBottom=2;html=1;container=0;" parent="qIt-0YH0f-4h-8XcCQia-8" vertex="1">
          <mxGeometry width="70" height="85" as="geometry" />
        </mxCell>
        <mxCell id="qIt-0YH0f-4h-8XcCQia-10" value="" style="sketch=0;aspect=fixed;pointerEvents=1;shadow=0;dashed=0;html=1;strokeColor=none;labelPosition=center;verticalLabelPosition=bottom;verticalAlign=top;align=center;fillColor=#8A8A8A;shape=mxgraph.azure.load_balancer_generic" parent="qIt-0YH0f-4h-8XcCQia-8" vertex="1">
          <mxGeometry x="20.200000000000045" y="12.5" width="29.6" height="40" as="geometry" />
        </mxCell>
        <mxCell id="APmiwgG9QhnnWm-MluCl-17" value="" style="group" parent="1" vertex="1" connectable="0">
          <mxGeometry x="-19.5" y="-517.5" width="170" height="60" as="geometry" />
        </mxCell>
        <mxCell id="APmiwgG9QhnnWm-MluCl-16" value="" style="dashed=0;strokeColor=#dddddd;shadow=1;strokeWidth=1;labelPosition=center;verticalLabelPosition=middle;align=center;verticalAlign=middle;spacingLeft=5;fontSize=12;whiteSpace=wrap;fontStyle=1;movable=1;resizable=1;rotatable=1;deletable=1;editable=1;locked=0;connectable=1;" parent="APmiwgG9QhnnWm-MluCl-17" vertex="1">
          <mxGeometry x="10" y="10" width="160" height="50" as="geometry" />
        </mxCell>
        <mxCell id="APmiwgG9QhnnWm-MluCl-13" value="Microsserviço" style="dashed=0;strokeColor=#dddddd;shadow=1;strokeWidth=1;labelPosition=center;verticalLabelPosition=middle;align=center;verticalAlign=middle;spacingLeft=5;fontSize=12;whiteSpace=wrap;fontStyle=1;movable=1;resizable=1;rotatable=1;deletable=1;editable=1;locked=0;connectable=1;" parent="APmiwgG9QhnnWm-MluCl-17" vertex="1">
          <mxGeometry width="160" height="50" as="geometry" />
        </mxCell>
        <mxCell id="APmiwgG9QhnnWm-MluCl-14" value="" style="sketch=0;pointerEvents=1;shadow=0;dashed=0;html=1;strokeColor=none;fillColor=#505050;labelPosition=center;verticalLabelPosition=bottom;verticalAlign=top;outlineConnect=0;align=center;shape=mxgraph.office.services.web_services;aspect=fixed;movable=1;resizable=1;rotatable=1;deletable=1;editable=1;locked=0;connectable=1;" parent="APmiwgG9QhnnWm-MluCl-17" vertex="1">
          <mxGeometry x="6" y="10" width="30" height="30" as="geometry" />
        </mxCell>
        <mxCell id="qIt-0YH0f-4h-8XcCQia-52" value="" style="group" parent="1" vertex="1" connectable="0">
          <mxGeometry x="-60" y="-422" width="70" height="85" as="geometry" />
        </mxCell>
        <mxCell id="qIt-0YH0f-4h-8XcCQia-47" value="Service Registry" style="strokeColor=#dddddd;shadow=1;strokeWidth=1;rounded=1;absoluteArcSize=1;arcSize=2;labelPosition=center;verticalLabelPosition=middle;align=center;verticalAlign=bottom;spacingLeft=0;fontColor=#999999;fontSize=12;whiteSpace=wrap;spacingBottom=2;html=1;container=0;" parent="qIt-0YH0f-4h-8XcCQia-52" vertex="1">
          <mxGeometry width="70" height="85" as="geometry" />
        </mxCell>
        <mxCell id="qIt-0YH0f-4h-8XcCQia-51" value="" style="sketch=0;pointerEvents=1;shadow=0;dashed=0;html=1;strokeColor=none;fillColor=#505050;labelPosition=center;verticalLabelPosition=bottom;verticalAlign=top;outlineConnect=0;align=center;shape=mxgraph.office.concepts.folders;aspect=fixed;" parent="qIt-0YH0f-4h-8XcCQia-52" vertex="1">
          <mxGeometry x="15" y="6.409999999999968" width="40" height="37.19" as="geometry" />
        </mxCell>
        <mxCell id="qIt-0YH0f-4h-8XcCQia-53" value="API Gateway" style="sketch=0;points=[[0,0,0],[0.25,0,0],[0.5,0,0],[0.75,0,0],[1,0,0],[1,0.25,0],[1,0.5,0],[1,0.75,0],[1,1,0],[0.75,1,0],[0.5,1,0],[0.25,1,0],[0,1,0],[0,0.75,0],[0,0.5,0],[0,0.25,0]];rounded=1;absoluteArcSize=1;arcSize=2;html=1;strokeColor=#ACDAFD;gradientColor=none;shadow=0;dashed=1;fontSize=12;fontColor=#9E9E9E;align=center;verticalAlign=middle;spacing=10;spacingTop=-4;whiteSpace=wrap;fillColor=#E3F2FD;rotation=0;fontStyle=1;horizontal=0;" parent="1" vertex="1">
          <mxGeometry x="490" y="-690" width="40" height="690" as="geometry" />
        </mxCell>
        <mxCell id="qIt-0YH0f-4h-8XcCQia-58" value="Operadores" style="strokeColor=#dddddd;shadow=1;strokeWidth=1;rounded=1;absoluteArcSize=1;arcSize=2;labelPosition=center;verticalLabelPosition=middle;align=center;verticalAlign=bottom;spacingLeft=0;fontColor=#999999;fontSize=12;whiteSpace=wrap;spacingBottom=2;html=1;container=0;" parent="1" vertex="1">
          <mxGeometry x="-828.0699999999999" y="-680" width="70" height="85" as="geometry" />
        </mxCell>
        <mxCell id="qIt-0YH0f-4h-8XcCQia-60" value="ETF" style="strokeColor=#dddddd;shadow=1;strokeWidth=1;rounded=1;absoluteArcSize=1;arcSize=2;labelPosition=center;verticalLabelPosition=middle;align=center;verticalAlign=bottom;spacingLeft=0;fontColor=#999999;fontSize=12;whiteSpace=wrap;spacingBottom=2;html=1;container=0;" parent="1" vertex="1">
          <mxGeometry x="-828.0699999999999" y="-561" width="70" height="85" as="geometry" />
        </mxCell>
        <mxCell id="qIt-0YH0f-4h-8XcCQia-61" value="Exchanges" style="strokeColor=#dddddd;shadow=1;strokeWidth=1;rounded=1;absoluteArcSize=1;arcSize=2;labelPosition=center;verticalLabelPosition=middle;align=center;verticalAlign=bottom;spacingLeft=0;fontColor=#999999;fontSize=12;whiteSpace=wrap;spacingBottom=2;html=1;container=0;" parent="1" vertex="1">
          <mxGeometry x="-828.0699999999999" y="-442" width="70" height="85" as="geometry" />
        </mxCell>
        <mxCell id="qIt-0YH0f-4h-8XcCQia-64" value="" style="group" parent="1" vertex="1" connectable="0">
          <mxGeometry x="-198.5" y="-230" width="70" height="85" as="geometry" />
        </mxCell>
        <mxCell id="qIt-0YH0f-4h-8XcCQia-62" value="Identity Provider" style="strokeColor=#dddddd;shadow=1;strokeWidth=1;rounded=1;absoluteArcSize=1;arcSize=2;labelPosition=center;verticalLabelPosition=middle;align=center;verticalAlign=bottom;spacingLeft=0;fontColor=#999999;fontSize=12;whiteSpace=wrap;spacingBottom=2;html=1;container=0;" parent="qIt-0YH0f-4h-8XcCQia-64" vertex="1">
          <mxGeometry width="70" height="85" as="geometry" />
        </mxCell>
        <mxCell id="qIt-0YH0f-4h-8XcCQia-63" value="" style="sketch=0;pointerEvents=1;shadow=0;dashed=0;html=1;strokeColor=none;fillColor=#505050;labelPosition=center;verticalLabelPosition=bottom;verticalAlign=top;outlineConnect=0;align=center;shape=mxgraph.office.security.universal_security_group;aspect=fixed;" parent="qIt-0YH0f-4h-8XcCQia-64" vertex="1">
          <mxGeometry x="15" y="10" width="40" height="40" as="geometry" />
        </mxCell>
        <mxCell id="qIt-0YH0f-4h-8XcCQia-65" value="Clientes" style="strokeColor=#dddddd;shadow=1;strokeWidth=1;rounded=1;absoluteArcSize=1;arcSize=2;labelPosition=center;verticalLabelPosition=middle;align=center;verticalAlign=bottom;spacingLeft=0;fontColor=#999999;fontSize=12;whiteSpace=wrap;spacingBottom=2;html=1;container=0;" parent="1" vertex="1">
          <mxGeometry x="-828.0699999999999" y="-324" width="70" height="85" as="geometry" />
        </mxCell>
        <mxCell id="qIt-0YH0f-4h-8XcCQia-75" value="" style="edgeStyle=orthogonalEdgeStyle;fontSize=12;html=1;endArrow=blockThin;endFill=1;rounded=0;strokeWidth=2;endSize=4;startSize=4;dashed=0;strokeColor=#4284F3;entryX=0;entryY=0.5;entryDx=0;entryDy=0;exitX=0.988;exitY=0.637;exitDx=0;exitDy=0;exitPerimeter=0;" parent="1" source="qIt-0YH0f-4h-8XcCQia-58" target="APmiwgG9QhnnWm-MluCl-28" edge="1">
          <mxGeometry width="100" relative="1" as="geometry">
            <mxPoint x="-730" y="-340" as="sourcePoint" />
            <mxPoint x="-690" y="-450" as="targetPoint" />
          </mxGeometry>
        </mxCell>
        <mxCell id="qIt-0YH0f-4h-8XcCQia-76" value="" style="edgeStyle=orthogonalEdgeStyle;fontSize=12;html=1;endArrow=blockThin;endFill=1;rounded=0;strokeWidth=2;endSize=4;startSize=4;dashed=0;strokeColor=#4284F3;entryX=-0.007;entryY=0.441;entryDx=0;entryDy=0;entryPerimeter=0;exitX=1;exitY=0.5;exitDx=0;exitDy=0;" parent="1" source="APmiwgG9QhnnWm-MluCl-27" target="qIt-0YH0f-4h-8XcCQia-12" edge="1">
          <mxGeometry width="100" relative="1" as="geometry">
            <mxPoint x="-530" y="-475" as="sourcePoint" />
            <mxPoint x="-453" y="-475" as="targetPoint" />
          </mxGeometry>
        </mxCell>
        <mxCell id="qIt-0YH0f-4h-8XcCQia-80" value="" style="fontSize=12;html=1;endArrow=blockThin;endFill=1;rounded=0;strokeWidth=2;endSize=4;startSize=4;dashed=0;strokeColor=#4284F3;entryX=0.035;entryY=0.214;entryDx=0;entryDy=0;entryPerimeter=0;exitX=1;exitY=0.5;exitDx=0;exitDy=0;edgeStyle=elbowEdgeStyle;" parent="1" source="qIt-0YH0f-4h-8XcCQia-12" target="rI7STQke5DLa7KK1Hro6-46" edge="1">
          <mxGeometry width="100" relative="1" as="geometry">
            <mxPoint x="-360" y="-560" as="sourcePoint" />
            <mxPoint x="-295" y="-560" as="targetPoint" />
          </mxGeometry>
        </mxCell>
        <mxCell id="qIt-0YH0f-4h-8XcCQia-81" value="" style="fontSize=12;html=1;endArrow=blockThin;endFill=1;rounded=0;strokeWidth=2;endSize=4;startSize=4;dashed=0;strokeColor=#4284F3;entryX=0.046;entryY=0.371;entryDx=0;entryDy=0;entryPerimeter=0;exitX=1;exitY=0.5;exitDx=0;exitDy=0;edgeStyle=elbowEdgeStyle;" parent="1" source="qIt-0YH0f-4h-8XcCQia-12" target="rI7STQke5DLa7KK1Hro6-46" edge="1">
          <mxGeometry width="100" relative="1" as="geometry">
            <mxPoint x="-304" y="-527" as="sourcePoint" />
            <mxPoint x="-269" y="-565" as="targetPoint" />
          </mxGeometry>
        </mxCell>
        <mxCell id="qIt-0YH0f-4h-8XcCQia-82" value="" style="fontSize=12;html=1;endArrow=blockThin;endFill=1;rounded=0;strokeWidth=2;endSize=4;startSize=4;dashed=0;strokeColor=#4284F3;entryX=-0.032;entryY=0.564;entryDx=0;entryDy=0;entryPerimeter=0;exitX=1;exitY=0.5;exitDx=0;exitDy=0;edgeStyle=elbowEdgeStyle;" parent="1" source="qIt-0YH0f-4h-8XcCQia-12" target="rI7STQke5DLa7KK1Hro6-46" edge="1">
          <mxGeometry width="100" relative="1" as="geometry">
            <mxPoint x="-325" y="-426.74" as="sourcePoint" />
            <mxPoint x="-280" y="-426.74" as="targetPoint" />
          </mxGeometry>
        </mxCell>
        <mxCell id="qIt-0YH0f-4h-8XcCQia-83" value="" style="fontSize=12;html=1;endArrow=blockThin;endFill=1;rounded=0;strokeWidth=2;endSize=4;startSize=4;dashed=0;strokeColor=#4284F3;entryX=0;entryY=0.5;entryDx=0;entryDy=0;exitX=1.02;exitY=0.293;exitDx=0;exitDy=0;edgeStyle=elbowEdgeStyle;exitPerimeter=0;" parent="1" source="rI7STQke5DLa7KK1Hro6-46" target="qIt-0YH0f-4h-8XcCQia-2" edge="1">
          <mxGeometry width="100" relative="1" as="geometry">
            <mxPoint x="-220" y="-548" as="sourcePoint" />
            <mxPoint x="-174" y="-605" as="targetPoint" />
          </mxGeometry>
        </mxCell>
        <mxCell id="qIt-0YH0f-4h-8XcCQia-84" value="" style="fontSize=12;html=1;endArrow=blockThin;endFill=1;rounded=0;strokeWidth=2;endSize=4;startSize=4;dashed=0;strokeColor=#4284F3;entryX=-0.014;entryY=0.6;entryDx=0;entryDy=0;exitX=1;exitY=0.5;exitDx=0;exitDy=0;edgeStyle=orthogonalEdgeStyle;entryPerimeter=0;" parent="1" source="qIt-0YH0f-4h-8XcCQia-2" target="APmiwgG9QhnnWm-MluCl-13" edge="1">
          <mxGeometry width="100" relative="1" as="geometry">
            <mxPoint x="-88" y="-599" as="sourcePoint" />
            <mxPoint x="-20" y="-696" as="targetPoint" />
          </mxGeometry>
        </mxCell>
        <mxCell id="qIt-0YH0f-4h-8XcCQia-85" value="" style="fontSize=12;html=1;endArrow=blockThin;endFill=1;rounded=0;strokeWidth=2;endSize=4;startSize=4;dashed=0;strokeColor=#4284F3;entryX=0;entryY=0.5;entryDx=0;entryDy=0;exitX=0.5;exitY=1;exitDx=0;exitDy=0;edgeStyle=orthogonalEdgeStyle;" parent="1" source="qIt-0YH0f-4h-8XcCQia-2" target="qIt-0YH0f-4h-8XcCQia-47" edge="1">
          <mxGeometry width="100" relative="1" as="geometry">
            <mxPoint x="-90" y="-637" as="sourcePoint" />
            <mxPoint x="38" y="-637" as="targetPoint" />
          </mxGeometry>
        </mxCell>
        <mxCell id="qIt-0YH0f-4h-8XcCQia-86" value="" style="fontSize=12;html=1;endArrow=blockThin;endFill=1;rounded=0;strokeWidth=2;endSize=4;startSize=4;dashed=0;strokeColor=#4284F3;exitX=0.988;exitY=0.587;exitDx=0;exitDy=0;edgeStyle=elbowEdgeStyle;exitPerimeter=0;" parent="1" source="rI7STQke5DLa7KK1Hro6-46" target="qIt-0YH0f-4h-8XcCQia-9" edge="1">
          <mxGeometry width="100" relative="1" as="geometry">
            <mxPoint x="-238" y="-440.5" as="sourcePoint" />
            <mxPoint x="-170" y="-537.5" as="targetPoint" />
          </mxGeometry>
        </mxCell>
        <mxCell id="qIt-0YH0f-4h-8XcCQia-88" value="" style="fontSize=12;html=1;endArrow=blockThin;endFill=1;rounded=0;strokeWidth=2;endSize=4;startSize=4;dashed=0;strokeColor=#4284F3;entryX=0;entryY=0.5;entryDx=0;entryDy=0;exitX=0.5;exitY=0;exitDx=0;exitDy=0;edgeStyle=orthogonalEdgeStyle;" parent="1" source="qIt-0YH0f-4h-8XcCQia-9" target="qIt-0YH0f-4h-8XcCQia-47" edge="1">
          <mxGeometry width="100" relative="1" as="geometry">
            <mxPoint x="-100" y="-435.5" as="sourcePoint" />
            <mxPoint x="-100" y="-367.5" as="targetPoint" />
          </mxGeometry>
        </mxCell>
        <mxCell id="qIt-0YH0f-4h-8XcCQia-90" value="" style="fontSize=12;html=1;endArrow=blockThin;endFill=1;rounded=0;strokeWidth=2;endSize=4;startSize=4;dashed=0;strokeColor=#4284F3;entryX=0;entryY=0.5;entryDx=0;entryDy=0;exitX=1;exitY=0.5;exitDx=0;exitDy=0;edgeStyle=orthogonalEdgeStyle;" parent="1" source="qIt-0YH0f-4h-8XcCQia-9" target="APmiwgG9QhnnWm-MluCl-46" edge="1">
          <mxGeometry width="100" relative="1" as="geometry">
            <mxPoint x="-88" y="-360" as="sourcePoint" />
            <mxPoint x="40" y="-360" as="targetPoint" />
          </mxGeometry>
        </mxCell>
        <mxCell id="qIt-0YH0f-4h-8XcCQia-91" value="" style="fontSize=12;html=1;endArrow=blockThin;endFill=1;rounded=0;strokeWidth=2;endSize=4;startSize=4;dashed=0;strokeColor=#4284F3;entryX=0;entryY=0.5;entryDx=0;entryDy=0;exitX=1;exitY=0.5;exitDx=0;exitDy=0;edgeStyle=elbowEdgeStyle;" parent="1" source="APmiwgG9QhnnWm-MluCl-16" target="qIt-0YH0f-4h-8XcCQia-36" edge="1">
          <mxGeometry width="100" relative="1" as="geometry">
            <mxPoint x="150.5" y="-580" as="sourcePoint" />
            <mxPoint x="219.5" y="-632" as="targetPoint" />
          </mxGeometry>
        </mxCell>
        <mxCell id="qIt-0YH0f-4h-8XcCQia-92" value="" style="fontSize=12;html=1;endArrow=blockThin;endFill=1;rounded=0;strokeWidth=2;endSize=4;startSize=4;dashed=0;strokeColor=#4284F3;edgeStyle=elbowEdgeStyle;entryX=0;entryY=0.5;entryDx=0;entryDy=0;exitX=0.5;exitY=1;exitDx=0;exitDy=0;" parent="1" source="APmiwgG9QhnnWm-MluCl-16" target="qIt-0YH0f-4h-8XcCQia-94" edge="1">
          <mxGeometry width="100" relative="1" as="geometry">
            <mxPoint x="153" y="-582" as="sourcePoint" />
            <mxPoint x="248.5" y="-407.5" as="targetPoint" />
            <Array as="points">
              <mxPoint x="70" y="-420" />
            </Array>
          </mxGeometry>
        </mxCell>
        <mxCell id="qIt-0YH0f-4h-8XcCQia-93" value="" style="group" parent="1" vertex="1" connectable="0">
          <mxGeometry x="330" y="-422" width="70" height="85" as="geometry" />
        </mxCell>
        <mxCell id="qIt-0YH0f-4h-8XcCQia-94" value="Load Balance" style="strokeColor=#dddddd;shadow=1;strokeWidth=1;rounded=1;absoluteArcSize=1;arcSize=2;labelPosition=center;verticalLabelPosition=middle;align=center;verticalAlign=bottom;spacingLeft=0;fontColor=#999999;fontSize=12;whiteSpace=wrap;spacingBottom=2;html=1;container=0;" parent="qIt-0YH0f-4h-8XcCQia-93" vertex="1">
          <mxGeometry width="70" height="85" as="geometry" />
        </mxCell>
        <mxCell id="qIt-0YH0f-4h-8XcCQia-95" value="" style="sketch=0;aspect=fixed;pointerEvents=1;shadow=0;dashed=0;html=1;strokeColor=none;labelPosition=center;verticalLabelPosition=bottom;verticalAlign=top;align=center;fillColor=#8A8A8A;shape=mxgraph.azure.load_balancer_generic" parent="qIt-0YH0f-4h-8XcCQia-93" vertex="1">
          <mxGeometry x="20.200000000000045" y="12.5" width="29.6" height="40" as="geometry" />
        </mxCell>
        <mxCell id="qIt-0YH0f-4h-8XcCQia-96" value="" style="fontSize=12;html=1;endArrow=blockThin;endFill=1;rounded=0;strokeWidth=2;endSize=4;startSize=4;dashed=0;strokeColor=#4284F3;exitX=0.5;exitY=0;exitDx=0;exitDy=0;edgeStyle=elbowEdgeStyle;entryX=0;entryY=0.5;entryDx=0;entryDy=0;" parent="1" source="APmiwgG9QhnnWm-MluCl-46" target="qIt-0YH0f-4h-8XcCQia-94" edge="1">
          <mxGeometry width="100" relative="1" as="geometry">
            <mxPoint x="155.5" y="-321.5" as="sourcePoint" />
            <mxPoint x="330" y="-426.5" as="targetPoint" />
            <Array as="points">
              <mxPoint x="66" y="-350" />
            </Array>
          </mxGeometry>
        </mxCell>
        <mxCell id="qIt-0YH0f-4h-8XcCQia-97" value="" style="fontSize=12;html=1;endArrow=blockThin;endFill=1;rounded=0;strokeWidth=2;endSize=4;startSize=4;dashed=0;strokeColor=#4284F3;entryX=0;entryY=0.5;entryDx=0;entryDy=0;exitX=1;exitY=0.5;exitDx=0;exitDy=0;edgeStyle=elbowEdgeStyle;" parent="1" source="APmiwgG9QhnnWm-MluCl-45" target="qIt-0YH0f-4h-8XcCQia-40" edge="1">
          <mxGeometry width="100" relative="1" as="geometry">
            <mxPoint x="160" y="-260" as="sourcePoint" />
            <mxPoint x="250" y="-295" as="targetPoint" />
          </mxGeometry>
        </mxCell>
        <mxCell id="qIt-0YH0f-4h-8XcCQia-98" value="" style="fontSize=12;html=1;endArrow=blockThin;endFill=1;rounded=0;strokeWidth=2;endSize=4;startSize=4;dashed=0;strokeColor=#4284F3;entryX=0.032;entryY=0.451;entryDx=0;entryDy=0;exitX=1;exitY=0.5;exitDx=0;exitDy=0;edgeStyle=elbowEdgeStyle;entryPerimeter=0;" parent="1" source="qIt-0YH0f-4h-8XcCQia-94" target="qIt-0YH0f-4h-8XcCQia-53" edge="1">
          <mxGeometry width="100" relative="1" as="geometry">
            <mxPoint x="310" y="-322.5" as="sourcePoint" />
            <mxPoint x="400" y="-468.5" as="targetPoint" />
          </mxGeometry>
        </mxCell>
        <mxCell id="qIt-0YH0f-4h-8XcCQia-99" value="" style="fontSize=12;html=1;endArrow=blockThin;endFill=1;rounded=0;strokeWidth=2;endSize=4;startSize=4;dashed=0;strokeColor=#4284F3;entryX=1;entryY=0.5;entryDx=0;entryDy=0;exitX=0.5;exitY=0;exitDx=0;exitDy=0;edgeStyle=orthogonalEdgeStyle;" parent="1" source="APmiwgG9QhnnWm-MluCl-46" target="qIt-0YH0f-4h-8XcCQia-47" edge="1">
          <mxGeometry width="100" relative="1" as="geometry">
            <mxPoint y="-385" as="sourcePoint" />
            <mxPoint y="-465" as="targetPoint" />
          </mxGeometry>
        </mxCell>
        <mxCell id="qIt-0YH0f-4h-8XcCQia-101" value="" style="fontSize=12;html=1;endArrow=blockThin;endFill=1;rounded=0;strokeWidth=2;endSize=4;startSize=4;dashed=0;strokeColor=#4284F3;entryX=1;entryY=0.5;entryDx=0;entryDy=0;edgeStyle=orthogonalEdgeStyle;exitX=0.5;exitY=1;exitDx=0;exitDy=0;" parent="1" source="APmiwgG9QhnnWm-MluCl-16" target="qIt-0YH0f-4h-8XcCQia-47" edge="1">
          <mxGeometry width="100" relative="1" as="geometry">
            <mxPoint x="80" y="-600" as="sourcePoint" />
            <mxPoint x="-90" y="-464" as="targetPoint" />
          </mxGeometry>
        </mxCell>
        <mxCell id="qIt-0YH0f-4h-8XcCQia-103" value="" style="group" parent="1" vertex="1" connectable="0">
          <mxGeometry x="160" y="-650" width="250" height="60" as="geometry" />
        </mxCell>
        <mxCell id="qIt-0YH0f-4h-8XcCQia-104" value="Serviço de Coleta de Logs" style="dashed=0;strokeColor=#dddddd;shadow=1;strokeWidth=1;labelPosition=center;verticalLabelPosition=middle;align=center;verticalAlign=middle;spacingLeft=5;fontSize=12;whiteSpace=wrap;fontStyle=1;movable=1;resizable=1;rotatable=1;deletable=1;editable=1;locked=0;connectable=1;" parent="qIt-0YH0f-4h-8XcCQia-103" vertex="1">
          <mxGeometry width="235.2941176470588" height="50" as="geometry" />
        </mxCell>
        <mxCell id="qIt-0YH0f-4h-8XcCQia-105" value="" style="group" parent="1" vertex="1" connectable="0">
          <mxGeometry x="-112" y="-650" width="250" height="60" as="geometry" />
        </mxCell>
        <mxCell id="qIt-0YH0f-4h-8XcCQia-106" value="Serviço de Monitoramento&#xa;e Análise de Métricas" style="dashed=0;strokeColor=#dddddd;shadow=1;strokeWidth=1;labelPosition=center;verticalLabelPosition=middle;align=center;verticalAlign=middle;spacingLeft=5;fontSize=12;whiteSpace=wrap;fontStyle=1;movable=1;resizable=1;rotatable=1;deletable=1;editable=1;locked=0;connectable=1;" parent="qIt-0YH0f-4h-8XcCQia-105" vertex="1">
          <mxGeometry width="235.2941176470588" height="50" as="geometry" />
        </mxCell>
        <mxCell id="qIt-0YH0f-4h-8XcCQia-108" value="" style="edgeStyle=orthogonalEdgeStyle;fontSize=12;html=1;endArrow=blockThin;endFill=1;rounded=0;strokeWidth=2;endSize=4;startSize=4;dashed=0;strokeColor=#4284F3;entryX=0;entryY=0.5;entryDx=0;entryDy=0;exitX=1;exitY=0.5;exitDx=0;exitDy=0;" parent="1" source="qIt-0YH0f-4h-8XcCQia-60" target="APmiwgG9QhnnWm-MluCl-28" edge="1">
          <mxGeometry width="100" relative="1" as="geometry">
            <mxPoint x="-781" y="-616" as="sourcePoint" />
            <mxPoint x="-645" y="-440" as="targetPoint" />
          </mxGeometry>
        </mxCell>
        <mxCell id="qIt-0YH0f-4h-8XcCQia-109" value="" style="edgeStyle=orthogonalEdgeStyle;fontSize=12;html=1;endArrow=blockThin;endFill=1;rounded=0;strokeWidth=2;endSize=4;startSize=4;dashed=0;strokeColor=#4284F3;entryX=0;entryY=0.5;entryDx=0;entryDy=0;exitX=1;exitY=0.5;exitDx=0;exitDy=0;" parent="1" source="qIt-0YH0f-4h-8XcCQia-61" target="APmiwgG9QhnnWm-MluCl-28" edge="1">
          <mxGeometry width="100" relative="1" as="geometry">
            <mxPoint x="-780" y="-517" as="sourcePoint" />
            <mxPoint x="-645" y="-440" as="targetPoint" />
          </mxGeometry>
        </mxCell>
        <mxCell id="qIt-0YH0f-4h-8XcCQia-110" value="" style="edgeStyle=orthogonalEdgeStyle;fontSize=12;html=1;endArrow=blockThin;endFill=1;rounded=0;strokeWidth=2;endSize=4;startSize=4;dashed=0;strokeColor=#4284F3;entryX=0;entryY=0.5;entryDx=0;entryDy=0;exitX=1;exitY=0.5;exitDx=0;exitDy=0;" parent="1" source="qIt-0YH0f-4h-8XcCQia-65" target="APmiwgG9QhnnWm-MluCl-28" edge="1">
          <mxGeometry width="100" relative="1" as="geometry">
            <mxPoint x="-780" y="-400" as="sourcePoint" />
            <mxPoint x="-645" y="-440" as="targetPoint" />
          </mxGeometry>
        </mxCell>
        <mxCell id="lhDbJ2xhRQro1HXBfFLg-1" value="" style="fontSize=12;html=1;endArrow=blockThin;endFill=1;rounded=0;strokeWidth=2;endSize=4;startSize=4;dashed=0;strokeColor=#4284F3;entryX=0.017;entryY=0.476;entryDx=0;entryDy=0;exitX=1.005;exitY=0.726;exitDx=0;exitDy=0;edgeStyle=orthogonalEdgeStyle;entryPerimeter=0;exitPerimeter=0;" parent="1" source="rI7STQke5DLa7KK1Hro6-46" target="qIt-0YH0f-4h-8XcCQia-62" edge="1">
          <mxGeometry width="100" relative="1" as="geometry">
            <mxPoint x="-280" y="-187.84" as="sourcePoint" />
            <mxPoint x="-166" y="-187.84" as="targetPoint" />
          </mxGeometry>
        </mxCell>
        <mxCell id="lhDbJ2xhRQro1HXBfFLg-6" value="" style="fontSize=12;html=1;endArrow=blockThin;endFill=1;rounded=0;strokeWidth=2;endSize=4;startSize=4;dashed=0;strokeColor=#4284F3;exitX=0.5;exitY=0;exitDx=0;exitDy=0;edgeStyle=elbowEdgeStyle;" parent="1" source="qIt-0YH0f-4h-8XcCQia-36" target="lhDbJ2xhRQro1HXBfFLg-2" edge="1">
          <mxGeometry width="100" relative="1" as="geometry">
            <mxPoint x="70.5" y="-530" as="sourcePoint" />
            <mxPoint x="129.5" y="-530" as="targetPoint" />
          </mxGeometry>
        </mxCell>
        <mxCell id="lhDbJ2xhRQro1HXBfFLg-7" value="" style="fontSize=12;html=1;endArrow=blockThin;endFill=1;rounded=0;strokeWidth=2;endSize=4;startSize=4;dashed=0;strokeColor=#4284F3;exitX=0.537;exitY=-0.001;exitDx=0;exitDy=0;edgeStyle=elbowEdgeStyle;exitPerimeter=0;" parent="1" source="APmiwgG9QhnnWm-MluCl-13" target="lhDbJ2xhRQro1HXBfFLg-2" edge="1">
          <mxGeometry width="100" relative="1" as="geometry">
            <mxPoint x="65.38" y="-517.5" as="sourcePoint" />
            <mxPoint x="65.38" y="-562.5" as="targetPoint" />
          </mxGeometry>
        </mxCell>
        <mxCell id="lhDbJ2xhRQro1HXBfFLg-9" value="" style="fontSize=12;html=1;endArrow=blockThin;endFill=1;rounded=0;strokeWidth=2;endSize=4;startSize=4;dashed=0;strokeColor=#4284F3;entryX=0.689;entryY=0.015;entryDx=0;entryDy=0;exitX=0.5;exitY=1;exitDx=0;exitDy=0;edgeStyle=orthogonalEdgeStyle;entryPerimeter=0;" parent="1" source="qIt-0YH0f-4h-8XcCQia-40" target="lhDbJ2xhRQro1HXBfFLg-3" edge="1">
          <mxGeometry width="100" relative="1" as="geometry">
            <mxPoint x="206.5" y="-160" as="sourcePoint" />
            <mxPoint x="320.5" y="-160" as="targetPoint" />
          </mxGeometry>
        </mxCell>
        <mxCell id="lhDbJ2xhRQro1HXBfFLg-10" value="" style="fontSize=12;html=1;endArrow=blockThin;endFill=1;rounded=0;strokeWidth=2;endSize=4;startSize=4;dashed=0;strokeColor=#4284F3;entryX=0.37;entryY=0.003;entryDx=0;entryDy=0;exitX=0.5;exitY=1;exitDx=0;exitDy=0;edgeStyle=orthogonalEdgeStyle;entryPerimeter=0;" parent="1" source="APmiwgG9QhnnWm-MluCl-45" target="lhDbJ2xhRQro1HXBfFLg-3" edge="1">
          <mxGeometry width="100" relative="1" as="geometry">
            <mxPoint x="59.56999999999999" y="-237.5" as="sourcePoint" />
            <mxPoint x="59.56999999999999" y="-126.5" as="targetPoint" />
          </mxGeometry>
        </mxCell>
        <mxCell id="lhDbJ2xhRQro1HXBfFLg-12" value="Parceiros" style="strokeColor=#dddddd;shadow=1;strokeWidth=1;rounded=1;absoluteArcSize=1;arcSize=2;labelPosition=center;verticalLabelPosition=middle;align=center;verticalAlign=bottom;spacingLeft=0;fontColor=#999999;fontSize=12;whiteSpace=wrap;spacingBottom=2;html=1;container=0;" parent="1" vertex="1">
          <mxGeometry x="-828.0699999999999" y="-205" width="70" height="85" as="geometry" />
        </mxCell>
        <mxCell id="lhDbJ2xhRQro1HXBfFLg-3" value="Telemetria" style="sketch=0;points=[[0,0,0],[0.25,0,0],[0.5,0,0],[0.75,0,0],[1,0,0],[1,0.25,0],[1,0.5,0],[1,0.75,0],[1,1,0],[0.75,1,0],[0.5,1,0],[0.25,1,0],[0,1,0],[0,0.75,0],[0,0.5,0],[0,0.25,0]];rounded=1;absoluteArcSize=1;arcSize=2;html=1;strokeColor=default;gradientColor=none;shadow=0;dashed=1;fontSize=12;fontColor=#9E9E9E;align=center;verticalAlign=bottom;spacing=10;spacingTop=-4;whiteSpace=wrap;fillColor=none;fontStyle=1;movable=1;resizable=1;rotatable=1;deletable=1;editable=1;locked=0;connectable=1;" parent="1" vertex="1">
          <mxGeometry x="-122" y="-120" width="532" height="120" as="geometry" />
        </mxCell>
        <mxCell id="qIt-0YH0f-4h-8XcCQia-68" value="" style="group" parent="1" vertex="1" connectable="0">
          <mxGeometry x="160" y="-90" width="250" height="60" as="geometry" />
        </mxCell>
        <mxCell id="qIt-0YH0f-4h-8XcCQia-70" value="Serviço de Coleta de Logs" style="dashed=0;strokeColor=#dddddd;shadow=1;strokeWidth=1;labelPosition=center;verticalLabelPosition=middle;align=center;verticalAlign=middle;spacingLeft=5;fontSize=12;whiteSpace=wrap;fontStyle=1;movable=1;resizable=1;rotatable=1;deletable=1;editable=1;locked=0;connectable=1;" parent="qIt-0YH0f-4h-8XcCQia-68" vertex="1">
          <mxGeometry width="235.2941176470588" height="50" as="geometry" />
        </mxCell>
        <mxCell id="lhDbJ2xhRQro1HXBfFLg-4" value="" style="group" parent="1" vertex="1" connectable="0">
          <mxGeometry x="-112" y="-90" width="250" height="60" as="geometry" />
        </mxCell>
        <mxCell id="lhDbJ2xhRQro1HXBfFLg-5" value="Serviço de Monitoramento&#xa;e Análise de Métricas" style="dashed=0;strokeColor=#dddddd;shadow=1;strokeWidth=1;labelPosition=center;verticalLabelPosition=middle;align=center;verticalAlign=middle;spacingLeft=5;fontSize=12;whiteSpace=wrap;fontStyle=1;movable=1;resizable=1;rotatable=1;deletable=1;editable=1;locked=0;connectable=1;" parent="lhDbJ2xhRQro1HXBfFLg-4" vertex="1">
          <mxGeometry width="235.2941176470588" height="50" as="geometry" />
        </mxCell>
        <mxCell id="lhDbJ2xhRQro1HXBfFLg-15" value="" style="edgeStyle=orthogonalEdgeStyle;fontSize=12;html=1;endArrow=blockThin;endFill=1;rounded=0;strokeWidth=2;endSize=4;startSize=4;dashed=0;strokeColor=#4284F3;exitX=1;exitY=0.5;exitDx=0;exitDy=0;entryX=0;entryY=0.5;entryDx=0;entryDy=0;" parent="1" source="lhDbJ2xhRQro1HXBfFLg-12" target="APmiwgG9QhnnWm-MluCl-28" edge="1">
          <mxGeometry width="100" relative="1" as="geometry">
            <mxPoint x="-748" y="-270" as="sourcePoint" />
            <mxPoint x="-660" y="-450" as="targetPoint" />
          </mxGeometry>
        </mxCell>
        <mxCell id="lhDbJ2xhRQro1HXBfFLg-16" value="" style="fontSize=12;html=1;endArrow=blockThin;endFill=1;rounded=0;strokeWidth=2;endSize=4;startSize=4;dashed=0;strokeColor=#4284F3;entryX=-0.002;entryY=0.564;entryDx=0;entryDy=0;exitX=1.006;exitY=0.099;exitDx=0;exitDy=0;edgeStyle=orthogonalEdgeStyle;entryPerimeter=0;exitPerimeter=0;" parent="1" source="rI7STQke5DLa7KK1Hro6-46" target="lhDbJ2xhRQro1HXBfFLg-2" edge="1">
          <mxGeometry width="100" relative="1" as="geometry">
            <mxPoint x="-234.5" y="-620.56" as="sourcePoint" />
            <mxPoint x="-128.5" y="-620.56" as="targetPoint" />
          </mxGeometry>
        </mxCell>
        <mxCell id="lhDbJ2xhRQro1HXBfFLg-17" value="" style="fontSize=12;html=1;endArrow=blockThin;endFill=1;rounded=0;strokeWidth=2;endSize=4;startSize=4;dashed=0;strokeColor=#4284F3;exitX=1.026;exitY=0.911;exitDx=0;exitDy=0;edgeStyle=orthogonalEdgeStyle;exitPerimeter=0;entryX=0.004;entryY=0.485;entryDx=0;entryDy=0;entryPerimeter=0;" parent="1" source="rI7STQke5DLa7KK1Hro6-46" target="lhDbJ2xhRQro1HXBfFLg-3" edge="1">
          <mxGeometry width="100" relative="1" as="geometry">
            <mxPoint x="-245" y="-60.5" as="sourcePoint" />
            <mxPoint x="-120" y="-60" as="targetPoint" />
          </mxGeometry>
        </mxCell>
        <mxCell id="lhDbJ2xhRQro1HXBfFLg-18" value="" style="fontSize=12;html=1;endArrow=blockThin;endFill=1;rounded=0;strokeWidth=2;endSize=4;startSize=4;dashed=0;strokeColor=#4284F3;entryX=0;entryY=0.5;entryDx=0;entryDy=0;exitX=1;exitY=0.5;exitDx=0;exitDy=0;edgeStyle=orthogonalEdgeStyle;" parent="1" source="qIt-0YH0f-4h-8XcCQia-106" target="qIt-0YH0f-4h-8XcCQia-104" edge="1">
          <mxGeometry width="100" relative="1" as="geometry">
            <mxPoint x="110" y="-580" as="sourcePoint" />
            <mxPoint x="233" y="-580" as="targetPoint" />
          </mxGeometry>
        </mxCell>
        <mxCell id="lhDbJ2xhRQro1HXBfFLg-19" value="" style="fontSize=12;html=1;endArrow=blockThin;endFill=1;rounded=0;strokeWidth=2;endSize=4;startSize=4;dashed=0;strokeColor=#4284F3;exitX=1;exitY=0.5;exitDx=0;exitDy=0;edgeStyle=orthogonalEdgeStyle;" parent="1" source="lhDbJ2xhRQro1HXBfFLg-5" target="qIt-0YH0f-4h-8XcCQia-70" edge="1">
          <mxGeometry width="100" relative="1" as="geometry">
            <mxPoint x="125.5" y="-60.30000000000001" as="sourcePoint" />
            <mxPoint x="160" y="-60" as="targetPoint" />
          </mxGeometry>
        </mxCell>
        <mxCell id="lhDbJ2xhRQro1HXBfFLg-20" value="" style="fontSize=12;html=1;endArrow=blockThin;endFill=1;rounded=0;strokeWidth=2;endSize=4;startSize=4;dashed=0;strokeColor=#4284F3;entryX=1;entryY=0.5;entryDx=0;entryDy=0;edgeStyle=elbowEdgeStyle;entryPerimeter=0;" parent="1" target="lhDbJ2xhRQro1HXBfFLg-2" edge="1">
          <mxGeometry width="100" relative="1" as="geometry">
            <mxPoint x="490" y="-630" as="sourcePoint" />
            <mxPoint x="410" y="-595.26" as="targetPoint" />
          </mxGeometry>
        </mxCell>
        <mxCell id="lhDbJ2xhRQro1HXBfFLg-21" value="" style="fontSize=12;html=1;endArrow=blockThin;endFill=1;rounded=0;strokeWidth=2;endSize=4;startSize=4;dashed=0;strokeColor=#4284F3;entryX=1;entryY=0.5;entryDx=0;entryDy=0;edgeStyle=elbowEdgeStyle;entryPerimeter=0;exitX=0.055;exitY=0.912;exitDx=0;exitDy=0;exitPerimeter=0;" parent="1" source="qIt-0YH0f-4h-8XcCQia-53" target="lhDbJ2xhRQro1HXBfFLg-3" edge="1">
          <mxGeometry width="100" relative="1" as="geometry">
            <mxPoint x="480" y="-60" as="sourcePoint" />
            <mxPoint x="420" y="-60.260000000000005" as="targetPoint" />
          </mxGeometry>
        </mxCell>
        <mxCell id="lhDbJ2xhRQro1HXBfFLg-22" value="" style="edgeStyle=orthogonalEdgeStyle;fontSize=12;html=1;endArrow=blockThin;endFill=1;rounded=0;strokeWidth=2;endSize=4;startSize=4;dashed=0;strokeColor=#4284F3;exitX=0.989;exitY=0.484;exitDx=0;exitDy=0;entryX=0;entryY=0.5;entryDx=0;entryDy=0;exitPerimeter=0;" parent="1" source="qIt-0YH0f-4h-8XcCQia-53" target="qIt-0YH0f-4h-8XcCQia-67" edge="1">
          <mxGeometry width="100" relative="1" as="geometry">
            <mxPoint x="560" y="-52" as="sourcePoint" />
            <mxPoint x="663" y="-340" as="targetPoint" />
          </mxGeometry>
        </mxCell>
        <mxCell id="lhDbJ2xhRQro1HXBfFLg-24" value="" style="edgeStyle=orthogonalEdgeStyle;fontSize=12;html=1;endArrow=blockThin;endFill=1;rounded=0;strokeWidth=2;endSize=4;startSize=4;dashed=0;strokeColor=#4284F3;exitX=0.994;exitY=0.484;exitDx=0;exitDy=0;entryX=0;entryY=0.5;entryDx=0;entryDy=0;exitPerimeter=0;" parent="1" source="qIt-0YH0f-4h-8XcCQia-53" target="qIt-0YH0f-4h-8XcCQia-100" edge="1">
          <mxGeometry width="100" relative="1" as="geometry">
            <mxPoint x="542" y="-345" as="sourcePoint" />
            <mxPoint x="650" y="-345" as="targetPoint" />
          </mxGeometry>
        </mxCell>
        <mxCell id="qIt-0YH0f-4h-8XcCQia-66" value="ETF" style="strokeColor=#dddddd;shadow=1;strokeWidth=1;rounded=1;absoluteArcSize=1;arcSize=2;labelPosition=center;verticalLabelPosition=middle;align=center;verticalAlign=bottom;spacingLeft=0;fontColor=#999999;fontSize=12;whiteSpace=wrap;spacingBottom=2;html=1;container=0;" parent="1" vertex="1">
          <mxGeometry x="640" y="-546.25" width="70" height="85" as="geometry" />
        </mxCell>
        <mxCell id="qIt-0YH0f-4h-8XcCQia-67" value="Exchanges" style="strokeColor=#dddddd;shadow=1;strokeWidth=1;rounded=1;absoluteArcSize=1;arcSize=2;labelPosition=center;verticalLabelPosition=middle;align=center;verticalAlign=bottom;spacingLeft=0;fontColor=#999999;fontSize=12;whiteSpace=wrap;spacingBottom=2;html=1;container=0;" parent="1" vertex="1">
          <mxGeometry x="640" y="-397.75" width="70" height="85" as="geometry" />
        </mxCell>
        <mxCell id="qIt-0YH0f-4h-8XcCQia-100" value="Parceiros" style="strokeColor=#dddddd;shadow=1;strokeWidth=1;rounded=1;absoluteArcSize=1;arcSize=2;labelPosition=center;verticalLabelPosition=middle;align=center;verticalAlign=bottom;spacingLeft=0;fontColor=#999999;fontSize=12;whiteSpace=wrap;spacingBottom=2;html=1;container=0;" parent="1" vertex="1">
          <mxGeometry x="640" y="-248.75" width="70" height="85" as="geometry" />
        </mxCell>
        <mxCell id="lhDbJ2xhRQro1HXBfFLg-25" value="" style="edgeStyle=orthogonalEdgeStyle;fontSize=12;html=1;endArrow=blockThin;endFill=1;rounded=0;strokeWidth=2;endSize=4;startSize=4;dashed=0;strokeColor=#4284F3;exitX=0.961;exitY=0.483;exitDx=0;exitDy=0;entryX=0;entryY=0.5;entryDx=0;entryDy=0;exitPerimeter=0;" parent="1" source="qIt-0YH0f-4h-8XcCQia-53" target="qIt-0YH0f-4h-8XcCQia-66" edge="1">
          <mxGeometry width="100" relative="1" as="geometry">
            <mxPoint x="520" y="-454.5" as="sourcePoint" />
            <mxPoint x="630" y="-304.5" as="targetPoint" />
          </mxGeometry>
        </mxCell>
      </root>
    </mxGraphModel>
  </diagram>
  <diagram name="Cópia do InvestX - Visão da Arquitetura de Aplicações (TO BE)" id="vfoCSfP19DKMsCC-sC97">
    <mxGraphModel dx="2552" dy="2066" grid="1" gridSize="10" guides="1" tooltips="1" connect="1" arrows="1" fold="1" page="0" pageScale="1" pageWidth="1169" pageHeight="827" math="0" shadow="0">
      <root>
        <mxCell id="YyInhOESzA7-MwsJwhBT-0" />
        <mxCell id="YyInhOESzA7-MwsJwhBT-1" parent="YyInhOESzA7-MwsJwhBT-0" />
        <mxCell id="YyInhOESzA7-MwsJwhBT-2" value="" style="rounded=0;whiteSpace=wrap;html=1;movable=1;resizable=1;rotatable=1;deletable=1;editable=1;locked=0;connectable=1;" vertex="1" parent="YyInhOESzA7-MwsJwhBT-1">
          <mxGeometry x="-920" y="-830" width="1840" height="890" as="geometry" />
        </mxCell>
        <mxCell id="YyInhOESzA7-MwsJwhBT-3" value="Clientes" style="sketch=0;points=[[0,0,0],[0.25,0,0],[0.5,0,0],[0.75,0,0],[1,0,0],[1,0.25,0],[1,0.5,0],[1,0.75,0],[1,1,0],[0.75,1,0],[0.5,1,0],[0.25,1,0],[0,1,0],[0,0.75,0],[0,0.5,0],[0,0.25,0]];rounded=1;absoluteArcSize=1;arcSize=2;html=1;strokeColor=default;gradientColor=none;shadow=0;dashed=1;fontSize=12;fontColor=#9E9E9E;align=center;verticalAlign=top;spacing=10;spacingTop=-4;whiteSpace=wrap;fillColor=#F6F6F6;fontStyle=1" vertex="1" parent="YyInhOESzA7-MwsJwhBT-1">
          <mxGeometry x="-876.14" y="-740" width="176.14" height="770" as="geometry" />
        </mxCell>
        <mxCell id="YyInhOESzA7-MwsJwhBT-4" value="Ambiente Externo (Inbound)" style="sketch=0;points=[[0,0,0],[0.25,0,0],[0.5,0,0],[0.75,0,0],[1,0,0],[1,0.25,0],[1,0.5,0],[1,0.75,0],[1,1,0],[0.75,1,0],[0.5,1,0],[0.25,1,0],[0,1,0],[0,0.75,0],[0,0.5,0],[0,0.25,0]];rounded=1;absoluteArcSize=1;arcSize=2;html=1;strokeColor=default;gradientColor=none;shadow=0;dashed=1;fontSize=12;fontColor=#9E9E9E;align=center;verticalAlign=top;spacing=10;spacingTop=-4;whiteSpace=wrap;fillColor=#F6F6F6;fontStyle=1" vertex="1" parent="YyInhOESzA7-MwsJwhBT-1">
          <mxGeometry x="-690" y="-740" width="230" height="770" as="geometry" />
        </mxCell>
        <mxCell id="YyInhOESzA7-MwsJwhBT-5" value="Ambiente Cloud" style="sketch=0;points=[[0,0,0],[0.25,0,0],[0.5,0,0],[0.75,0,0],[1,0,0],[1,0.25,0],[1,0.5,0],[1,0.75,0],[1,1,0],[0.75,1,0],[0.5,1,0],[0.25,1,0],[0,1,0],[0,0.75,0],[0,0.5,0],[0,0.25,0]];rounded=1;absoluteArcSize=1;arcSize=2;html=1;strokeColor=default;gradientColor=none;shadow=0;dashed=1;fontSize=12;fontColor=#9E9E9E;align=center;verticalAlign=top;spacing=10;spacingTop=-4;whiteSpace=wrap;fillColor=#F6F6F6;fontStyle=1;movable=1;resizable=1;rotatable=1;deletable=1;editable=1;locked=0;connectable=1;" vertex="1" parent="YyInhOESzA7-MwsJwhBT-1">
          <mxGeometry x="-450" y="-740" width="1000" height="770" as="geometry" />
        </mxCell>
        <mxCell id="YyInhOESzA7-MwsJwhBT-6" value="Ambiente Externo (Outbound)" style="sketch=0;points=[[0,0,0],[0.25,0,0],[0.5,0,0],[0.75,0,0],[1,0,0],[1,0.25,0],[1,0.5,0],[1,0.75,0],[1,1,0],[0.75,1,0],[0.5,1,0],[0.25,1,0],[0,1,0],[0,0.75,0],[0,0.5,0],[0,0.25,0]];rounded=1;absoluteArcSize=1;arcSize=2;html=1;strokeColor=default;gradientColor=none;shadow=0;dashed=1;fontSize=12;fontColor=#9E9E9E;align=center;verticalAlign=top;spacing=10;spacingTop=-4;whiteSpace=wrap;fillColor=#F6F6F6;fontStyle=1" vertex="1" parent="YyInhOESzA7-MwsJwhBT-1">
          <mxGeometry x="560" y="-740" width="240" height="770" as="geometry" />
        </mxCell>
        <mxCell id="YyInhOESzA7-MwsJwhBT-7" value="Telemetria" style="sketch=0;points=[[0,0,0],[0.25,0,0],[0.5,0,0],[0.75,0,0],[1,0,0],[1,0.25,0],[1,0.5,0],[1,0.75,0],[1,1,0],[0.75,1,0],[0.5,1,0],[0.25,1,0],[0,1,0],[0,0.75,0],[0,0.5,0],[0,0.25,0]];rounded=1;absoluteArcSize=1;arcSize=2;html=1;strokeColor=default;gradientColor=none;shadow=0;dashed=1;fontSize=12;fontColor=#9E9E9E;align=center;verticalAlign=top;spacing=10;spacingTop=-4;whiteSpace=wrap;fillColor=none;fontStyle=1;movable=1;resizable=1;rotatable=1;deletable=1;editable=1;locked=0;connectable=1;" vertex="1" parent="YyInhOESzA7-MwsJwhBT-1">
          <mxGeometry x="-122" y="-690" width="532" height="120" as="geometry" />
        </mxCell>
        <mxCell id="YyInhOESzA7-MwsJwhBT-8" value="" style="shape=image;verticalLabelPosition=bottom;labelBackgroundColor=default;verticalAlign=top;aspect=fixed;imageAspect=0;image=data:image/png,iVBORw0KGgoAAAANSUhEUgAAAQQAAABGCAYAAAAq7+rZAAAAAXNSR0IArs4c6QAAAIRlWElmTU0AKgAAAAgABQESAAMAAAABAAEAAAEaAAUAAAABAAAASgEbAAUAAAABAAAAUgEoAAMAAAABAAIAAIdpAAQAAAABAAAAWgAAAAAAAACQAAAAAQAAAJAAAAABAAOgAQADAAAAAQABAACgAgAEAAAAAQAAAQSgAwAEAAAAAQAAAEYAAAAAGjWiXwAAAAlwSFlzAAAWJQAAFiUBSVIk8AAAG/FJREFUeAHtnVdzI9l1xw/QAJgzZzh5RhukDVqtVmElW1aw5bKtKssqq+wHv7j0IfxdXH5x+cnlF5fLrpKscklWsJIlrTdqZzbM7uRIcjhMQyI0/P+dRmNITpMESRDkLO6dAQF0uOH0Pf8T74VZKIECgQKBAg0K5HivqwSKBAoECgQK5AMJAgUCBQIFUgoEQEgpEd4DBQIFLABCmASBAoECTQoEQGiSInwIFAgUCIAQ5kCgQKBAkwIBEJqkCB8CBQIFAiCEORAoECjQpEAAhCYpwodAgUCBAAhhDgQKBAo0KVBoftrvD+RCel7kfjcU6g8U+OhSoBbHFtdiH2Aul7Moyhvv7SqdA4T29bldYw/1BAo8VhRghcHKatmWlh+w3MBKxYIN9Pf7e7sG0jlAUI/jmUWr/Ohti6/PJtpCLLWhjcso6uWq5Yb7rPD5Jy16+pjlB3vNhKBpqT8oW+Wn5y2+OmuFl3XNU8cs11s0y7cXrarv3rTq/31o9ekFy430W/Hrz1t0YjztRnveKzWL7y9b7XfXrPr2NbPVimi5h6qhQSGyXH/JcqMDlp8asfzJcYvOTOhZtZc+e+hlV98ai1/uzs7Zh9duGprC6NCAPXH6pI2PDLWNLh0FhPqdeVv5xx9b5bcfWH5YzMpEa+Ncqy+uahKPWW8x0oQetjqTew0g2NKqrf7rr63yPxes7+++afnjY5brgQTt6wTKXOU3F23lH35otfduWf7cpA2oL3kBQvtaEe8DCLfvW/m7r9rKv/xCaFt3Zt7xzEhNOQChp+gAFh0fFVhOWeFTZ1VvnNCpJDq1GTh33Ncuv6EmUwFAOP/BZavWanZscsKOTow/xoBQrVosqYkoi547Zbmjw5rEPclEQ1vYY6mvVCw/PmDRx456vbn8Q+2Aquua3PWFFavPLJlJW4CJ9iRVN/SX9muX7lj1jSsWv3vLNYT6QK9Vfvm++jVohRfONgBow427+YpmVRUo3Fuy+tyyFT5zzqJPi4GBHc7pf0tFl+e4vFEfY7DFFe9z5X8vWv67r1nxSx+30p9+yjWGnMA2lIOhQF6AjL8ATYEXz6ydQoZRdVRDMMSnkM2Z44tPW/TsSctPDgoQ8s6seyZzNXYTIDo9YTkxYpZEcwcMkg5Ktpma8a05aR/vWHxp2myo16LRfstNDlnt9ctWGeyx6PSk5aSKt6/krK4xo+oXPvsxK337ZY1JxxpOp1baaZJA99SXVx3EapfuWv3Vy1Z7/7bVLtywukAnN9BjRZ7Zk1Ntp1sr/ezGa6oC/AqvWsUBgO/4EHAkCg4cEBblT1hYWnYhEEWRFQsFnZeGvEttrrOAgNgC1aQV5GWbFp49IVVaajsD3MEk3nRyUDeEQPUVk2Tavk0OaH7YtLqdnEAgVy/etvK//dbBrSiJGskkQeJWvveqVWTjF//oebfNd1LvttdK67EoZ/lToqc0BMkQga6Ye9sbkwuaVBDt/BnIFAEYYoFL7c2rVlbfY5k+D/7+BxZLE+n92y/L3OtrsfZw2W4pEOt5LIjZp+fu2827M7b8YMWn8+z9BSmGer6cFxBc+PCKXb897efGhofs5NQRG5FvobentKumOwwI6iMztSTnlSRoTmp0OrmaE3NXw9jZTe0M09AyjBTf04OSg6/2zo1EWv/JC266xNdmrfrfb1l8ZcYdjXk57KJzR9srZaUV5ORAzaMVNcpu6Ln2HgwD17QKOfe7lH903qqvfGDVzz2RALmcpe0sTHCkYbkiAK3ItNR3nhOSriiJ19srDWuDCZjVfkVmKVIUG1tVqNSlKOatVCq6N76gumKBKNfQHs65ZFKuHf36mjmT9EX1yLNfcCmscN/6y7b8RptljevBqvxY5bL3DUnfUyxZj/rGa928VOe57t78gl27dcfuLy5JEYwMLcFNX7W2ovO3Zu7Z9L37PsZVCR1AYbB/94DdeUCAijwpNAIN7qNQ6vL2V8QwNUUWsLGLz520nq8+KwfdgNXGBACfOmNVOVLL//WmSaezvrNHsrWXPRADUGL+72SSbtdcXkxf+tbn5MCMrabITO36PY3hDUVvpOG1GRBgTib/HU1wXnyPCmKYQtHGRgbt7MnjNjywNQgBAtRx+cYdl541fcfWRloePzJpUxOjLj1XyxW7KiabmZu3JUlewCcv8NmscA5m7BMoTYyNiOmGnelKO/Cn0CbS/vrtu+4YRMr39/bakfFRm5ocsym9AzRrC2wS1wSU0toAybpYJuZPozgbAXwaY172eEWfATjMid2W9T3YbS27uY8+M6KPQKnjO/jBm64FYMvj3AMMKPnJYSt++Vmp4ZJar16yKj4FmQ6RVPz2lv2hZU6SK3rmhBVePGseTpU/JP7yM+3tumpzqb1Sdia9JqZBmsIgBUnRxQcPPN5elBnYW1LkKIN58cDfX1iyW3dn7erN2za/uOxsQb0wHq+xYfmrVACOuflFuy3g4R6YCE1ks+kIILg0V9uo7GMjwzYpYCDch3q+FZh4g/oD8NyanrUbd2bsriQ6/QVgGCd1j6tvawGBMfYJyCZGh+1jp443TIacA960Ig3AAvfTj6GGRoB2MCTQBLx2Ww4OEHbb48N0HzNID7Qm30HlF+95DkTpm5+xwkvnmr10jeEPn5MvQYDw83es9pbyBl6/4ppC1FYHY7PJtn9wJ7ByO+Ib9+QwlcNxXk6sNhfgDEZdkdo7v/RAZK1KmYrEOIkpMTw44A4zpHypqNyRDQVTAwa/KjC5I4Z5IHq7803PCC1htVLWe6KRAhKo4zApdjqAEIkBt4NUmPSW7HnA5diRcWfU/r4eqf2P9mdt92h/Xio/gHBPQIS5gomEZuKApTrOHDsiAFDETW1QaGtwoM9B4YTaoo9oTRc+uGL3BEp1jQUgePaJM3b62FGvj/HiVMy3YFqt7d/azwEQ1lJjp5/l4SekWPnle26G4oF3DUFRjmbRQyKuX5AZUfjkaaspF6P8vdc8/BhNvdC87DB/IMKQ1xgkejziYIQm213EHDAkKjFM4lK7ltd7Tcy96pIVO3t0iMy8jQxYlwR94M43QGEV9boBBF6f6uS7/jdLyoy0RSowzuhI44OZ1hoPMDN98ev0mfvqKyt2e/qeM/BRAdS4NIbN/Bvct6z+Awj3BQb4EKiDAgCi/XBuQSDY39crX8JDZyCSnpdgwktZZgc+jKTv8rGoz4DIgO5rVwmAsAdKxpKUZWVeVl65ZNETR6348lNWwGGYgdCR/AbFr3/S6j94y7Mlo7OTVpIpISN5Dz3o0K0CtTSjsy5mE4fsQ8MPJSPSEYmdhM6kJYipsPf7pSKfODLhTJOCAowOYMzif5hNTACYE+b2GuO8O9w8+rKG02kDVZ9XrOOE6oYH+72NnJyQfr1G6ZJZY14RI6+IId0voTYXlpdlPsw7k9Ovgb5sRx5M72AgpgcYMBVS8KDvVfkH0FToP87AEibRJtRVV92E6hUwVuPIgXEv2kBWM4/BbMzq9sEfI026dvGOVX71njIG56z3O1+14tfE4Js4mnITg1ZU5KE2o2iEnI/V15Sb8OuLSlY6rVThrZ1lBz5aScZ6wwHs4dwMwGt3H1NhDhPAODjl5hYWPcQG804pQ49zMJibCjfvOmOlmgDnWi859/KfPT6lsJ2AWp5/mBadBYcddv7tmVm7KZXfHZHLSm5TnzBTMDnGZAJsBgjcSxQAU6EsM4j7HIT0zmeACRMCcwJAGJUvYWNCXTqOnMY9Kr8FPgWACjOqv/ehRpFet5f3AAi7oZ4eZO39Wx45iO/OO0MXv/CUsi9PuumQBfE5pf5Gn0iccxWtEYhvzllZ4UjCr+QPHOaCQ7Su/krH9VCxcsM71l0YBsZB9V8SI97AhpeKPDo06EycOutg1lXWsuj6VsEA0EmBpxAV5MAbMUCh+IhJIpwX0K8KABJnZXInqjthQEBpswKz40Scc+dl3W38Hs0F8bOYmjArr6rN6JpJtQ/w4SzMKgDJ6NCQnTuVOGHRFNzvkHXxLo8FQNgF4eqSPpWfvWPl779u0TH5BxSbZxHQZsieNoHQKnz8uJX+/CWr/OS81iG8JpA4nkQl0osO4Xt9bsmqSlLy1HCZPizY6mRBfSeXAAmLtB2RZJyU3V6QPY3WQDiPaEFV5xPFIGXzHakJWw6JCEBJL1f3VT0toK6T37A2OrCxkiX5CFh/MK/+cddAf6/3H7MEsMDswIEKsKW+hILMHZyDGwuAMISjEa1AHcCk2ktEYWP9fH+01ayrOnVMaFsv6yUPseCz6XF9pHmes4iRIyOxT8RpVSQ8UtHODyCtalenpfZfkpZw25m7qCgCSVatlOj0uHwJz8ncUGTi/JvOaIWXbihZSYym8Ry2Ul+VaXT+uiclmTJMcZrmtQalE4XHTA4BjAfzEGfHDoeJ0BRwqiGxCSGivnMdjITjDVvfnYtNHeDRHq+FC5x/LCsmrNijNt1kcM1EpoEYFlMBxx/MS7slaRQ48wjz9WY8N7QHsgsBLNKLiWoAHpgFRyfGvJ9kGuKLSJKVZH7o+735eWf4LEBgBKmj8dHRtOfI4QEEPLhSTWN54ePLCm1pZaIpMeWRIkLraTnzREp7ZgkzqbudKvEVgYGiCoAB7Ra++JQv/slpErZScsOKE39WGsVLyvp7TaAiyVv5z9ct/1dfsNypNi+RbqVDW1xTVwiQ3Am0IfpJOjbgl+9AP/Huo/4npkFJavecVSVtAeT7AoFLyjUgOoBDEU89YECOQuLg63XgWBVwcP1WJZk5hDarrtpzORLaHZr6QgLRg4YknxFYwOQFtQUQkIdAbgNtbiw1CTdAZGaOVGMJOV3AeIa0fwH+D8wCgO3arbs+jlqu5oCANjEic4j6D6K0Nos70TMRv76gmPD7N5M9E5Ts457tjW1rogheXW0tfuFJLS+WZBVAdKrU3r4uU+ENw2woKKrAvgutgkHax7wkRVG5CrG0hOqvlcGoMCT+h+KxEY2FNRjplQfwrufACkoWatXe0FqGn7xtNa3cpH8+Xpk4abr5fvbOGVkMNCgGIvmH7zApUhqmRKLjWMOGxwYnJEmSDtmMXMe5xP/QQi/VTlXXT99T5qL8FGgAOuTFMwUFFsseZSCXIXbNgAxDXvgzsh4YacWYMmROAiqe2KR5y1i4D60irtc8sjG/pOQoXbOocZFDMTU57q+DmAaHCxC0JNknojzwrLhjs471xBYYKFEFpxarCFkYJaomT64TfxV/9+jAzy5YQdl6pW991hcw7abpgpZ/1/9CDqkL2kxFKwqrH9yx6IUzFh3RZheSUAdSiJzISVrTBi/kVlR/8a5Vf6O9K56estLffMlK0g6iifZtxrHVGPHwwxCo73jeSVIia3FV0hqJDWOmTx6wABBOTk24531+Ydm1iK3qX3uOdqgPxuS1VUETIVeAzUkAq/XzM7kTZyG+Aw9LyndA3fQfrQCTAT8A/gA0GiIFg7oGcwFtB60Cf0hZgLI2J2GrPrXz3OEBBBE6T2hO6nReThPWB6AJPFIAAEwJ2bPE/ju1Pr8+q92eXlG4UIuXMFmKz5+yksyFvNYq7KawyKmokGP9O1/xNQIFrXdwjSgVTTutNOWOjPvIMKy+e0PLsK9aTYut3P8iKejF2xP7sYxavhvoHs9LNZf5RmQEByhO0+LXBAaswehUaYyH7uFNJ0eAcOO0GAbfgCfnuNYgBhVooLofU44C6jsaxENTYQvCNMaSXoHfAIZvUKY5UsDJowlibLQObH5WGNIHLp6QgxNm5z7aJVKA3wDGxlnIMXwhgAHj4RhaDJoNfgVSlPFfrEpLINdh3n0Ji562vJkvodm5Nn/I4Lg2t9BqdSJQfkyrH/UqSFIetlK7PO0Le/BxeNbhi2fkXNvD3gYCFe7v+esvNmL8UlPxhaSMugsCMLGZlBtLTJRAKzHL339NadNXtTRcgJqaWT6LNZE1OaXbWg7bfUgSTGAbaYylb3zax8tzOYiCdEXdJqcfZrx6e8jDf75iUCCGkw0/A446wnYwWmIqCOC8ZFFk/UhgWCQ2oEM+QUQd+pcABZmKCZPj2AQMeL92566Yt+ztR4oYoKEkjsiE4XEmYn7g7IzykYNZXu+YPDcEJvQTjYBFS/SXwl/XVJTERDQFp2X3AoKT5HD+ISmnKk97RVmGeWUY9mivAHIK2lFI9PFkHypzibP9BM5sV7dtdmdOWgxp08xwFik56EgSNgs3Ihl7lQcPKMssyMt0YTMXHLfsU3lQBemMWE0Z/9yJKZEptuu32ANAC4Rki2MqnNFxYvJkFO6mkPnImoAkManoAOGAoGdCDgSPZlEM/u7lq0qjnraa8BMtgNWLSP8RpVQDJvQNtf/29JxrCjA7/E7a8Yx8CpgSREEgOX4OtB3Wb6Bt5AFpXUzkhEQonJaJVrHZk93NSLe+5/BoCFv388DOsjFrVRuEVOVMjGU2sJ1Y8SvPJP6LdveKmbMPBfPEtGIRjcSjNzSTtsWs57vMA1+zcET7P7I57WEpzpV0UXn7UsuPyyyAqebw3scFmQpD2ltw3I6OjbrUdTW+cc92Q+Ayv1R/ABwY8JQyFXsFLKnU9joaQJ3Y+PclvbXaUFoDKj9hyklsfn2Wa8Df791fdFCoCDXQPCicTxKb1vsokna4JtFS+LSktRJEJ/ArYI5gVqzrDxXuUwmAsA1h2T6s/B+v+O7GpBkXPqPlzco01Aza5s7Dc5r8BqS+sSRbUikpyURt9hJTBVX5sI0r4RWX0oUc5oGSkmQazI7NOwBMjGsZskABKU1JfActIkJj8KkUh3eTzxto02Bq2sBHgSbCykNemAQkRLEqEy0AsCLBCHMB0ADK0AToF7jSgKBGy7wlbdEEyVcUzAj8DJgXvLMuA8DqRAmAsA2Vax9qvYK87azwK33jxWRp8z4xDdoIKc2aQb4DUm5ETig2od1rgdFlvz5OILZ+yCkzSZGRao8kx0TAt0DWIl77tCRMl35r/R3eRXWHkWFg7P4EXGBhciK0L4OSiGB4HIyoFmgtztDiZoAEyY7G4IlIAgrux7eA2l+UmYDfIKvQZ3wHaCAkXpETkWYx4iwd0P0BELIo18ljyjGvKiOxor0LYkKCUrmLf/aiv+9XN1wb+eHvfL8BMhrZBp12Q1lPARJ32FINdZzt1Yg+7KY02NlvJVTINmUsMkJFTzMVEeowK2CRLK6acVW+rrY9t0DXsh8CfVnA9teyaI9y6B6Apb9v0J46e0Kbqgy5gzBR/ak1KXz35CdFeK4rSenS9VtW1umqzA3yGAAT8hIAlk6UoCFsQuVYalvlpxeUOKQt1OVYYwFSdEa7JmeFQjepY8eHcSppOTQRDbZcI407r99HOHRq/I4HtvMbYBlnm4e806wEzzvrB7LlbXKf3y/Rm6jqGZU06k/PoP7fmZlLVHQcrGLUtOCXwAeABCckSBIT9Za0UYrnEZBXoEeHBoFDkUgEiWuEMAflaGTJNluveUhTx9EIKN6C2vGMS91D/WwfR2Yj5gZhS3IZyLsAGDpRAiBsQuV4dskqP1aWnpyJLFsuao/EfDvU903a4zBOvYIyAWtKFy5r8RNLpgtffcZ/9amT2ZhbdLEjp2CU9LUZ1zszbdKb9F6YOn1lXerX6Q+8z9oHJDKv7UpR6xjQGvAn+D6NMlsACHIJ7ivcCHig4rMYiszEcYVMSVneqpTk1MU84HrWTgAODkDSOqgX5ykaCX3ez5J4Mfazhcew7prSdqu/vajtwhTakkOu9PuKLMiZuNleB+0aogOC76x0yn/Epqb2K0qTjq/OtKuJw1uPZrr7Nd3fQYJQg5kfQkNLfXfBvgYIUOVTUHjITMnqSVan6mzzPEyNZIbZ17087JisrSBkSL7CKW159tSZk/bk6ZP+nYjA3OKipzgj4fF1sJvSEUU/yEjcrpS0mSz+kKNKax7UikjGgSJBkhMbvxCyjFXvfpcu1RBSRTGDvHLokZ5c1Q+uUJDYJEp1ZMkvk1dJQZFyBYq/97Sx5wK7HLO7EqshP8oFxoXZBpWMg6Qke48wI1KYtN+1KvxWdKAeGJC04rEhVkhWXW2nntQxh3+AulH34Tps/c0cft6WmBPgQELDuDgxiXQQ7mTH5GTzFoUT1TbJREQjWJx08uikr6/AQdlKwSwgwSrdWQmthdwGohdoC5gurdXUSmvZ13QeEODFLfgxu5ttPrpF+7GcOxVthsqPwrKYp/jHn+z4jkb8FF3p25+31X/6qdYTaE3By1fkwzjnqd3ydj1KjMNA00d7taMjMNvQwIAnBw2KmQjl4SvAGcdmozBxK4XNTVjkhGMQZkXSe2RCKjcgQAF42JYdNX6lLHtfjLYp4DTAAGZnLUUCVOzi3OP5CvgF6DuLqs6dOOZAoeocFMigBHS2BJs1g2LtwpFx+atkbhzVO31n5SWgQF8Bu/0unQUEJi7xHQ206VnZ7xFuqJ8tsfihC2+f/qwp/Jpy9bx+bEVZieTzF5S6W5CkzmlX3E4W1nTwC9YOBr+6aNW3tOpQIFX6g08og/DhXgRM5IOmZ7voAsOzmzEggB3tmXtiAMJ1HGuVqWBa7mcVIhKWRwzTYs+jaVBwSBK6HB7sc+3AD27yJ2FBzArVo7p7BTgbN0QhJRnpjmZSG2duKTMcH4Ku3Yl2AxCwkzKAxcatCVDR/2TDFEKf+106CwiMhkmsFw/qQDQF7EFAyTtAJx6Wmn6ktfzv+ik2JSMVtHiJdF92RDqIEim7kH0Tah/e9dWHq//8cyvIdFgLCN6vFGCzBnQQHd9lm0jogtZYRJF+yUh+m7S4/a8vm0rw9MLGuzO/M2KhSRGYOrk/YW/AhTZ66g+v2VDNI1+TO9N61p8GzPIyE3pKjXlNe7w0plb7TY2ADtpGbz75NSeOUXZTV3Lnzv92FBCQfD1/qV8CEgEL7GMgr3onS06rKItf4/cV9XPnct75bkt4shqFn0NDXSerL6e9CVhNeZCl8PxJ7R71khYkaUNRTRT61yySdvxegkc/xrTpyjPaz/ExLwkDMYiHz2Q3Q2qFEV39hgPbUKgGH4NzdBvqa2ffdtodp4hUkwx5udOqWrgedV0JHhSP57O6r00PpYXWE81Ea/6lJybts+pvbfs67rsLQw26JtXNXd8tVb4PF9EfvegvJceW7QLTZoGeCnE1x7PJjs/N68OHQIFtKNA5QABz1jLfNh3r6OkGAGS2edj6fdj6k0m0cPBxpUDnAOFxpVDod6BAF1Fgjf7ZRaMOQw0UCBTIpEAAhEyyhIOBAt1JgQAI3fncw6gDBTIpEAAhkyzhYKBAd1IgAEJ3Pvcw6kCBTAoEQMgkSzgYKNCdFAiA0J3PPYw6UCCTAgEQMskSDgYKdCcFAiB053MPow4UyKRAAIRMsoSDgQLdSYEACN353MOoAwUyKRAAIZMs4WCgQHdSIABCdz73MOpAgUwKBEDIJEs4GCjQnRQIgNCdzz2MOlAgkwIBEDLJEg4GCnQnBQIgdOdzD6MOFMikQACETLKEg4EC3UmBAAjd+dzDqAMFMikQACGTLOFgoECgQKBAoECgQJdT4P8B1NQXnZSJLoUAAAAASUVORK5CYII=;" vertex="1" parent="YyInhOESzA7-MwsJwhBT-1">
          <mxGeometry x="-894" y="-810" width="185.71" height="50" as="geometry" />
        </mxCell>
        <mxCell id="YyInhOESzA7-MwsJwhBT-9" value="API Gateway" style="sketch=0;points=[[0,0,0],[0.25,0,0],[0.5,0,0],[0.75,0,0],[1,0,0],[1,0.25,0],[1,0.5,0],[1,0.75,0],[1,1,0],[0.75,1,0],[0.5,1,0],[0.25,1,0],[0,1,0],[0,0.75,0],[0,0.5,0],[0,0.25,0]];rounded=1;absoluteArcSize=1;arcSize=2;html=1;strokeColor=#ACDAFD;gradientColor=none;shadow=0;dashed=1;fontSize=12;fontColor=#9E9E9E;align=center;verticalAlign=middle;spacing=10;spacingTop=-4;whiteSpace=wrap;fillColor=#E3F2FD;rotation=0;fontStyle=1;horizontal=0;" vertex="1" parent="YyInhOESzA7-MwsJwhBT-1">
          <mxGeometry x="-286.5" y="-690" width="40" height="690" as="geometry" />
        </mxCell>
        <mxCell id="YyInhOESzA7-MwsJwhBT-10" value="InvestX - Visão da Arquitetura de Aplicações (TO BE)" style="text;strokeColor=none;fillColor=none;html=1;fontSize=24;fontStyle=1;verticalAlign=middle;align=center;" vertex="1" parent="YyInhOESzA7-MwsJwhBT-1">
          <mxGeometry x="-670.5" y="-810" width="1540.5" height="40" as="geometry" />
        </mxCell>
        <mxCell id="YyInhOESzA7-MwsJwhBT-11" value="" style="group" vertex="1" connectable="0" parent="YyInhOESzA7-MwsJwhBT-1">
          <mxGeometry x="-655" y="-475" width="170" height="60" as="geometry" />
        </mxCell>
        <mxCell id="YyInhOESzA7-MwsJwhBT-12" value="" style="dashed=0;strokeColor=#dddddd;shadow=1;strokeWidth=1;labelPosition=center;verticalLabelPosition=middle;align=center;verticalAlign=middle;spacingLeft=5;fontSize=12;whiteSpace=wrap;fontStyle=1;movable=1;resizable=1;rotatable=1;deletable=1;editable=1;locked=0;connectable=1;" vertex="1" parent="YyInhOESzA7-MwsJwhBT-11">
          <mxGeometry x="10" y="10" width="160" height="50" as="geometry" />
        </mxCell>
        <mxCell id="YyInhOESzA7-MwsJwhBT-13" value="CDN /&#xa;Web Firewall" style="dashed=0;strokeColor=#dddddd;shadow=1;strokeWidth=1;labelPosition=center;verticalLabelPosition=middle;align=center;verticalAlign=middle;spacingLeft=5;fontSize=12;whiteSpace=wrap;fontStyle=1;movable=1;resizable=1;rotatable=1;deletable=1;editable=1;locked=0;connectable=1;" vertex="1" parent="YyInhOESzA7-MwsJwhBT-11">
          <mxGeometry width="160" height="50" as="geometry" />
        </mxCell>
        <mxCell id="YyInhOESzA7-MwsJwhBT-14" value="" style="sketch=0;pointerEvents=1;shadow=0;dashed=0;html=1;strokeColor=none;fillColor=#505050;labelPosition=center;verticalLabelPosition=bottom;verticalAlign=top;outlineConnect=0;align=center;shape=mxgraph.office.concepts.script;aspect=fixed;" vertex="1" parent="YyInhOESzA7-MwsJwhBT-11">
          <mxGeometry x="5" y="11.129999999999995" width="30" height="27.74" as="geometry" />
        </mxCell>
        <mxCell id="YyInhOESzA7-MwsJwhBT-15" value="" style="group" vertex="1" connectable="0" parent="YyInhOESzA7-MwsJwhBT-1">
          <mxGeometry x="-429.5" y="-477.5" width="70" height="85" as="geometry" />
        </mxCell>
        <mxCell id="YyInhOESzA7-MwsJwhBT-16" value="Load Balance" style="strokeColor=#dddddd;shadow=1;strokeWidth=1;rounded=1;absoluteArcSize=1;arcSize=2;labelPosition=center;verticalLabelPosition=middle;align=center;verticalAlign=bottom;spacingLeft=0;fontColor=#999999;fontSize=12;whiteSpace=wrap;spacingBottom=2;html=1;container=0;" vertex="1" parent="YyInhOESzA7-MwsJwhBT-15">
          <mxGeometry width="70" height="85" as="geometry" />
        </mxCell>
        <mxCell id="YyInhOESzA7-MwsJwhBT-17" value="" style="sketch=0;aspect=fixed;pointerEvents=1;shadow=0;dashed=0;html=1;strokeColor=none;labelPosition=center;verticalLabelPosition=bottom;verticalAlign=top;align=center;fillColor=#8A8A8A;shape=mxgraph.azure.load_balancer_generic" vertex="1" parent="YyInhOESzA7-MwsJwhBT-15">
          <mxGeometry x="20.200000000000045" y="12.5" width="29.6" height="40" as="geometry" />
        </mxCell>
        <mxCell id="YyInhOESzA7-MwsJwhBT-18" value="" style="group" vertex="1" connectable="0" parent="YyInhOESzA7-MwsJwhBT-1">
          <mxGeometry x="-198.5" y="-530" width="70" height="85" as="geometry" />
        </mxCell>
        <mxCell id="YyInhOESzA7-MwsJwhBT-19" value="Load Balance" style="strokeColor=#dddddd;shadow=1;strokeWidth=1;rounded=1;absoluteArcSize=1;arcSize=2;labelPosition=center;verticalLabelPosition=middle;align=center;verticalAlign=bottom;spacingLeft=0;fontColor=#999999;fontSize=12;whiteSpace=wrap;spacingBottom=2;html=1;container=0;" vertex="1" parent="YyInhOESzA7-MwsJwhBT-18">
          <mxGeometry width="70" height="85" as="geometry" />
        </mxCell>
        <mxCell id="YyInhOESzA7-MwsJwhBT-20" value="" style="sketch=0;aspect=fixed;pointerEvents=1;shadow=0;dashed=0;html=1;strokeColor=none;labelPosition=center;verticalLabelPosition=bottom;verticalAlign=top;align=center;fillColor=#8A8A8A;shape=mxgraph.azure.load_balancer_generic" vertex="1" parent="YyInhOESzA7-MwsJwhBT-18">
          <mxGeometry x="20.200000000000045" y="12.5" width="29.6" height="40" as="geometry" />
        </mxCell>
        <mxCell id="YyInhOESzA7-MwsJwhBT-21" value="" style="group;fontStyle=1" vertex="1" connectable="0" parent="YyInhOESzA7-MwsJwhBT-1">
          <mxGeometry x="210" y="-525" width="70" height="85" as="geometry" />
        </mxCell>
        <mxCell id="YyInhOESzA7-MwsJwhBT-22" value="Repositório de Dados" style="strokeColor=#dddddd;shadow=1;strokeWidth=1;rounded=1;absoluteArcSize=1;arcSize=2;labelPosition=center;verticalLabelPosition=middle;align=center;verticalAlign=bottom;spacingLeft=0;fontColor=#999999;fontSize=12;whiteSpace=wrap;spacingBottom=2;html=1;container=0;" vertex="1" parent="YyInhOESzA7-MwsJwhBT-21">
          <mxGeometry width="70" height="85" as="geometry" />
        </mxCell>
        <mxCell id="YyInhOESzA7-MwsJwhBT-23" value="" style="sketch=0;shadow=0;dashed=0;html=1;strokeColor=none;fillColor=#505050;labelPosition=center;verticalLabelPosition=bottom;verticalAlign=top;outlineConnect=0;align=center;shape=mxgraph.office.databases.database_mini_1;aspect=fixed;" vertex="1" parent="YyInhOESzA7-MwsJwhBT-21">
          <mxGeometry x="20" y="10" width="30" height="30" as="geometry" />
        </mxCell>
        <mxCell id="YyInhOESzA7-MwsJwhBT-24" value="" style="group" vertex="1" connectable="0" parent="YyInhOESzA7-MwsJwhBT-1">
          <mxGeometry x="210" y="-318" width="70.5" height="85" as="geometry" />
        </mxCell>
        <mxCell id="YyInhOESzA7-MwsJwhBT-25" value="Repositório de Dados" style="strokeColor=#dddddd;shadow=1;strokeWidth=1;rounded=1;absoluteArcSize=1;arcSize=2;labelPosition=center;verticalLabelPosition=middle;align=center;verticalAlign=bottom;spacingLeft=0;fontColor=#999999;fontSize=12;whiteSpace=wrap;spacingBottom=2;html=1;container=0;" vertex="1" parent="YyInhOESzA7-MwsJwhBT-24">
          <mxGeometry width="70.5" height="85" as="geometry" />
        </mxCell>
        <mxCell id="YyInhOESzA7-MwsJwhBT-26" value="" style="sketch=0;shadow=0;dashed=0;html=1;strokeColor=none;fillColor=#505050;labelPosition=center;verticalLabelPosition=bottom;verticalAlign=top;outlineConnect=0;align=center;shape=mxgraph.office.databases.database_mini_1;aspect=fixed;" vertex="1" parent="YyInhOESzA7-MwsJwhBT-24">
          <mxGeometry x="20.142857142857142" y="10" width="30" height="30" as="geometry" />
        </mxCell>
        <mxCell id="YyInhOESzA7-MwsJwhBT-27" value="" style="group" vertex="1" connectable="0" parent="YyInhOESzA7-MwsJwhBT-1">
          <mxGeometry x="-14.5" y="-310.5" width="345" height="70" as="geometry" />
        </mxCell>
        <mxCell id="YyInhOESzA7-MwsJwhBT-28" value="" style="dashed=0;strokeColor=#dddddd;shadow=1;strokeWidth=1;labelPosition=center;verticalLabelPosition=middle;align=center;verticalAlign=middle;spacingLeft=5;fontSize=12;whiteSpace=wrap;fontStyle=1;movable=1;resizable=1;rotatable=1;deletable=1;editable=1;locked=0;connectable=1;" vertex="1" parent="YyInhOESzA7-MwsJwhBT-27">
          <mxGeometry x="10" y="10" width="160" height="50" as="geometry" />
        </mxCell>
        <mxCell id="YyInhOESzA7-MwsJwhBT-29" value="Função&#xa;sem Servidor" style="dashed=0;strokeColor=#dddddd;shadow=1;strokeWidth=1;labelPosition=center;verticalLabelPosition=middle;align=center;verticalAlign=middle;spacingLeft=5;fontSize=12;whiteSpace=wrap;fontStyle=1;movable=1;resizable=1;rotatable=1;deletable=1;editable=1;locked=0;connectable=1;" vertex="1" parent="YyInhOESzA7-MwsJwhBT-27">
          <mxGeometry width="160" height="50" as="geometry" />
        </mxCell>
        <mxCell id="YyInhOESzA7-MwsJwhBT-30" value="" style="sketch=0;aspect=fixed;pointerEvents=1;shadow=0;dashed=0;html=1;strokeColor=none;labelPosition=center;verticalLabelPosition=bottom;verticalAlign=top;align=center;fillColor=#8A8A8A;shape=mxgraph.mscae.enterprise.code_file;gradientColor=none;" vertex="1" parent="YyInhOESzA7-MwsJwhBT-27">
          <mxGeometry x="10" y="9.699999999999989" width="30" height="30.61" as="geometry" />
        </mxCell>
        <mxCell id="YyInhOESzA7-MwsJwhBT-31" value="" style="group" vertex="1" connectable="0" parent="YyInhOESzA7-MwsJwhBT-1">
          <mxGeometry x="-198.5" y="-328" width="70" height="85" as="geometry" />
        </mxCell>
        <mxCell id="YyInhOESzA7-MwsJwhBT-32" value="Load Balance" style="strokeColor=#dddddd;shadow=1;strokeWidth=1;rounded=1;absoluteArcSize=1;arcSize=2;labelPosition=center;verticalLabelPosition=middle;align=center;verticalAlign=bottom;spacingLeft=0;fontColor=#999999;fontSize=12;whiteSpace=wrap;spacingBottom=2;html=1;container=0;" vertex="1" parent="YyInhOESzA7-MwsJwhBT-31">
          <mxGeometry width="70" height="85" as="geometry" />
        </mxCell>
        <mxCell id="YyInhOESzA7-MwsJwhBT-33" value="" style="sketch=0;aspect=fixed;pointerEvents=1;shadow=0;dashed=0;html=1;strokeColor=none;labelPosition=center;verticalLabelPosition=bottom;verticalAlign=top;align=center;fillColor=#8A8A8A;shape=mxgraph.azure.load_balancer_generic" vertex="1" parent="YyInhOESzA7-MwsJwhBT-31">
          <mxGeometry x="20.200000000000045" y="12.5" width="29.6" height="40" as="geometry" />
        </mxCell>
        <mxCell id="YyInhOESzA7-MwsJwhBT-34" value="" style="group" vertex="1" connectable="0" parent="YyInhOESzA7-MwsJwhBT-1">
          <mxGeometry x="-19.5" y="-517.5" width="170" height="60" as="geometry" />
        </mxCell>
        <mxCell id="YyInhOESzA7-MwsJwhBT-35" value="" style="dashed=0;strokeColor=#dddddd;shadow=1;strokeWidth=1;labelPosition=center;verticalLabelPosition=middle;align=center;verticalAlign=middle;spacingLeft=5;fontSize=12;whiteSpace=wrap;fontStyle=1;movable=1;resizable=1;rotatable=1;deletable=1;editable=1;locked=0;connectable=1;" vertex="1" parent="YyInhOESzA7-MwsJwhBT-34">
          <mxGeometry x="10" y="10" width="160" height="50" as="geometry" />
        </mxCell>
        <mxCell id="YyInhOESzA7-MwsJwhBT-36" value="Microsserviço" style="dashed=0;strokeColor=#dddddd;shadow=1;strokeWidth=1;labelPosition=center;verticalLabelPosition=middle;align=center;verticalAlign=middle;spacingLeft=5;fontSize=12;whiteSpace=wrap;fontStyle=1;movable=1;resizable=1;rotatable=1;deletable=1;editable=1;locked=0;connectable=1;" vertex="1" parent="YyInhOESzA7-MwsJwhBT-34">
          <mxGeometry width="160" height="50" as="geometry" />
        </mxCell>
        <mxCell id="YyInhOESzA7-MwsJwhBT-37" value="" style="sketch=0;pointerEvents=1;shadow=0;dashed=0;html=1;strokeColor=none;fillColor=#505050;labelPosition=center;verticalLabelPosition=bottom;verticalAlign=top;outlineConnect=0;align=center;shape=mxgraph.office.services.web_services;aspect=fixed;movable=1;resizable=1;rotatable=1;deletable=1;editable=1;locked=0;connectable=1;" vertex="1" parent="YyInhOESzA7-MwsJwhBT-34">
          <mxGeometry x="6" y="10" width="30" height="30" as="geometry" />
        </mxCell>
        <mxCell id="YyInhOESzA7-MwsJwhBT-38" value="" style="group" vertex="1" connectable="0" parent="YyInhOESzA7-MwsJwhBT-1">
          <mxGeometry x="-60" y="-422" width="70" height="85" as="geometry" />
        </mxCell>
        <mxCell id="YyInhOESzA7-MwsJwhBT-39" value="Service Registry" style="strokeColor=#dddddd;shadow=1;strokeWidth=1;rounded=1;absoluteArcSize=1;arcSize=2;labelPosition=center;verticalLabelPosition=middle;align=center;verticalAlign=bottom;spacingLeft=0;fontColor=#999999;fontSize=12;whiteSpace=wrap;spacingBottom=2;html=1;container=0;" vertex="1" parent="YyInhOESzA7-MwsJwhBT-38">
          <mxGeometry width="70" height="85" as="geometry" />
        </mxCell>
        <mxCell id="YyInhOESzA7-MwsJwhBT-40" value="" style="sketch=0;pointerEvents=1;shadow=0;dashed=0;html=1;strokeColor=none;fillColor=#505050;labelPosition=center;verticalLabelPosition=bottom;verticalAlign=top;outlineConnect=0;align=center;shape=mxgraph.office.concepts.folders;aspect=fixed;" vertex="1" parent="YyInhOESzA7-MwsJwhBT-38">
          <mxGeometry x="15" y="6.409999999999968" width="40" height="37.19" as="geometry" />
        </mxCell>
        <mxCell id="YyInhOESzA7-MwsJwhBT-41" value="API Gateway" style="sketch=0;points=[[0,0,0],[0.25,0,0],[0.5,0,0],[0.75,0,0],[1,0,0],[1,0.25,0],[1,0.5,0],[1,0.75,0],[1,1,0],[0.75,1,0],[0.5,1,0],[0.25,1,0],[0,1,0],[0,0.75,0],[0,0.5,0],[0,0.25,0]];rounded=1;absoluteArcSize=1;arcSize=2;html=1;strokeColor=#ACDAFD;gradientColor=none;shadow=0;dashed=1;fontSize=12;fontColor=#9E9E9E;align=center;verticalAlign=middle;spacing=10;spacingTop=-4;whiteSpace=wrap;fillColor=#E3F2FD;rotation=0;fontStyle=1;horizontal=0;" vertex="1" parent="YyInhOESzA7-MwsJwhBT-1">
          <mxGeometry x="490" y="-690" width="40" height="690" as="geometry" />
        </mxCell>
        <mxCell id="YyInhOESzA7-MwsJwhBT-42" value="Operadores" style="strokeColor=#dddddd;shadow=1;strokeWidth=1;rounded=1;absoluteArcSize=1;arcSize=2;labelPosition=center;verticalLabelPosition=middle;align=center;verticalAlign=bottom;spacingLeft=0;fontColor=#999999;fontSize=12;whiteSpace=wrap;spacingBottom=2;html=1;container=0;" vertex="1" parent="YyInhOESzA7-MwsJwhBT-1">
          <mxGeometry x="-828.0699999999999" y="-680" width="70" height="85" as="geometry" />
        </mxCell>
        <mxCell id="YyInhOESzA7-MwsJwhBT-43" value="ETF" style="strokeColor=#dddddd;shadow=1;strokeWidth=1;rounded=1;absoluteArcSize=1;arcSize=2;labelPosition=center;verticalLabelPosition=middle;align=center;verticalAlign=bottom;spacingLeft=0;fontColor=#999999;fontSize=12;whiteSpace=wrap;spacingBottom=2;html=1;container=0;" vertex="1" parent="YyInhOESzA7-MwsJwhBT-1">
          <mxGeometry x="-828.0699999999999" y="-561" width="70" height="85" as="geometry" />
        </mxCell>
        <mxCell id="YyInhOESzA7-MwsJwhBT-44" value="Exchanges" style="strokeColor=#dddddd;shadow=1;strokeWidth=1;rounded=1;absoluteArcSize=1;arcSize=2;labelPosition=center;verticalLabelPosition=middle;align=center;verticalAlign=bottom;spacingLeft=0;fontColor=#999999;fontSize=12;whiteSpace=wrap;spacingBottom=2;html=1;container=0;" vertex="1" parent="YyInhOESzA7-MwsJwhBT-1">
          <mxGeometry x="-828.0699999999999" y="-442" width="70" height="85" as="geometry" />
        </mxCell>
        <mxCell id="YyInhOESzA7-MwsJwhBT-45" value="" style="group" vertex="1" connectable="0" parent="YyInhOESzA7-MwsJwhBT-1">
          <mxGeometry x="-198.5" y="-230" width="70" height="85" as="geometry" />
        </mxCell>
        <mxCell id="YyInhOESzA7-MwsJwhBT-46" value="Identity Provider" style="strokeColor=#dddddd;shadow=1;strokeWidth=1;rounded=1;absoluteArcSize=1;arcSize=2;labelPosition=center;verticalLabelPosition=middle;align=center;verticalAlign=bottom;spacingLeft=0;fontColor=#999999;fontSize=12;whiteSpace=wrap;spacingBottom=2;html=1;container=0;" vertex="1" parent="YyInhOESzA7-MwsJwhBT-45">
          <mxGeometry width="70" height="85" as="geometry" />
        </mxCell>
        <mxCell id="YyInhOESzA7-MwsJwhBT-47" value="" style="sketch=0;pointerEvents=1;shadow=0;dashed=0;html=1;strokeColor=none;fillColor=#505050;labelPosition=center;verticalLabelPosition=bottom;verticalAlign=top;outlineConnect=0;align=center;shape=mxgraph.office.security.universal_security_group;aspect=fixed;" vertex="1" parent="YyInhOESzA7-MwsJwhBT-45">
          <mxGeometry x="15" y="10" width="40" height="40" as="geometry" />
        </mxCell>
        <mxCell id="YyInhOESzA7-MwsJwhBT-48" value="Clientes" style="strokeColor=#dddddd;shadow=1;strokeWidth=1;rounded=1;absoluteArcSize=1;arcSize=2;labelPosition=center;verticalLabelPosition=middle;align=center;verticalAlign=bottom;spacingLeft=0;fontColor=#999999;fontSize=12;whiteSpace=wrap;spacingBottom=2;html=1;container=0;" vertex="1" parent="YyInhOESzA7-MwsJwhBT-1">
          <mxGeometry x="-828.0699999999999" y="-324" width="70" height="85" as="geometry" />
        </mxCell>
        <mxCell id="YyInhOESzA7-MwsJwhBT-49" value="" style="edgeStyle=orthogonalEdgeStyle;fontSize=12;html=1;endArrow=blockThin;endFill=1;rounded=0;strokeWidth=2;endSize=4;startSize=4;dashed=0;strokeColor=#4284F3;entryX=0;entryY=0.5;entryDx=0;entryDy=0;exitX=0.988;exitY=0.637;exitDx=0;exitDy=0;exitPerimeter=0;" edge="1" parent="YyInhOESzA7-MwsJwhBT-1" source="YyInhOESzA7-MwsJwhBT-42" target="YyInhOESzA7-MwsJwhBT-13">
          <mxGeometry width="100" relative="1" as="geometry">
            <mxPoint x="-730" y="-340" as="sourcePoint" />
            <mxPoint x="-690" y="-450" as="targetPoint" />
          </mxGeometry>
        </mxCell>
        <mxCell id="YyInhOESzA7-MwsJwhBT-50" value="" style="edgeStyle=orthogonalEdgeStyle;fontSize=12;html=1;endArrow=blockThin;endFill=1;rounded=0;strokeWidth=2;endSize=4;startSize=4;dashed=0;strokeColor=#4284F3;entryX=-0.007;entryY=0.441;entryDx=0;entryDy=0;entryPerimeter=0;exitX=1;exitY=0.5;exitDx=0;exitDy=0;" edge="1" parent="YyInhOESzA7-MwsJwhBT-1" source="YyInhOESzA7-MwsJwhBT-12" target="YyInhOESzA7-MwsJwhBT-16">
          <mxGeometry width="100" relative="1" as="geometry">
            <mxPoint x="-530" y="-475" as="sourcePoint" />
            <mxPoint x="-453" y="-475" as="targetPoint" />
          </mxGeometry>
        </mxCell>
        <mxCell id="YyInhOESzA7-MwsJwhBT-51" value="" style="fontSize=12;html=1;endArrow=blockThin;endFill=1;rounded=0;strokeWidth=2;endSize=4;startSize=4;dashed=0;strokeColor=#4284F3;entryX=0.035;entryY=0.214;entryDx=0;entryDy=0;entryPerimeter=0;exitX=1;exitY=0.5;exitDx=0;exitDy=0;edgeStyle=elbowEdgeStyle;" edge="1" parent="YyInhOESzA7-MwsJwhBT-1" source="YyInhOESzA7-MwsJwhBT-16" target="YyInhOESzA7-MwsJwhBT-9">
          <mxGeometry width="100" relative="1" as="geometry">
            <mxPoint x="-360" y="-560" as="sourcePoint" />
            <mxPoint x="-295" y="-560" as="targetPoint" />
          </mxGeometry>
        </mxCell>
        <mxCell id="YyInhOESzA7-MwsJwhBT-52" value="" style="fontSize=12;html=1;endArrow=blockThin;endFill=1;rounded=0;strokeWidth=2;endSize=4;startSize=4;dashed=0;strokeColor=#4284F3;entryX=0.046;entryY=0.371;entryDx=0;entryDy=0;entryPerimeter=0;exitX=1;exitY=0.5;exitDx=0;exitDy=0;edgeStyle=elbowEdgeStyle;" edge="1" parent="YyInhOESzA7-MwsJwhBT-1" source="YyInhOESzA7-MwsJwhBT-16" target="YyInhOESzA7-MwsJwhBT-9">
          <mxGeometry width="100" relative="1" as="geometry">
            <mxPoint x="-304" y="-527" as="sourcePoint" />
            <mxPoint x="-269" y="-565" as="targetPoint" />
          </mxGeometry>
        </mxCell>
        <mxCell id="YyInhOESzA7-MwsJwhBT-53" value="" style="fontSize=12;html=1;endArrow=blockThin;endFill=1;rounded=0;strokeWidth=2;endSize=4;startSize=4;dashed=0;strokeColor=#4284F3;entryX=-0.032;entryY=0.564;entryDx=0;entryDy=0;entryPerimeter=0;exitX=1;exitY=0.5;exitDx=0;exitDy=0;edgeStyle=elbowEdgeStyle;" edge="1" parent="YyInhOESzA7-MwsJwhBT-1" source="YyInhOESzA7-MwsJwhBT-16" target="YyInhOESzA7-MwsJwhBT-9">
          <mxGeometry width="100" relative="1" as="geometry">
            <mxPoint x="-325" y="-426.74" as="sourcePoint" />
            <mxPoint x="-280" y="-426.74" as="targetPoint" />
          </mxGeometry>
        </mxCell>
        <mxCell id="YyInhOESzA7-MwsJwhBT-54" value="" style="fontSize=12;html=1;endArrow=blockThin;endFill=1;rounded=0;strokeWidth=2;endSize=4;startSize=4;dashed=0;strokeColor=#4284F3;entryX=0;entryY=0.5;entryDx=0;entryDy=0;exitX=1.02;exitY=0.293;exitDx=0;exitDy=0;edgeStyle=elbowEdgeStyle;exitPerimeter=0;" edge="1" parent="YyInhOESzA7-MwsJwhBT-1" source="YyInhOESzA7-MwsJwhBT-9" target="YyInhOESzA7-MwsJwhBT-19">
          <mxGeometry width="100" relative="1" as="geometry">
            <mxPoint x="-220" y="-548" as="sourcePoint" />
            <mxPoint x="-174" y="-605" as="targetPoint" />
          </mxGeometry>
        </mxCell>
        <mxCell id="YyInhOESzA7-MwsJwhBT-55" value="" style="fontSize=12;html=1;endArrow=blockThin;endFill=1;rounded=0;strokeWidth=2;endSize=4;startSize=4;dashed=0;strokeColor=#4284F3;entryX=-0.014;entryY=0.6;entryDx=0;entryDy=0;exitX=1;exitY=0.5;exitDx=0;exitDy=0;edgeStyle=orthogonalEdgeStyle;entryPerimeter=0;" edge="1" parent="YyInhOESzA7-MwsJwhBT-1" source="YyInhOESzA7-MwsJwhBT-19" target="YyInhOESzA7-MwsJwhBT-36">
          <mxGeometry width="100" relative="1" as="geometry">
            <mxPoint x="-88" y="-599" as="sourcePoint" />
            <mxPoint x="-20" y="-696" as="targetPoint" />
          </mxGeometry>
        </mxCell>
        <mxCell id="YyInhOESzA7-MwsJwhBT-56" value="" style="fontSize=12;html=1;endArrow=blockThin;endFill=1;rounded=0;strokeWidth=2;endSize=4;startSize=4;dashed=0;strokeColor=#4284F3;entryX=0;entryY=0.5;entryDx=0;entryDy=0;exitX=0.5;exitY=1;exitDx=0;exitDy=0;edgeStyle=orthogonalEdgeStyle;" edge="1" parent="YyInhOESzA7-MwsJwhBT-1" source="YyInhOESzA7-MwsJwhBT-19" target="YyInhOESzA7-MwsJwhBT-39">
          <mxGeometry width="100" relative="1" as="geometry">
            <mxPoint x="-90" y="-637" as="sourcePoint" />
            <mxPoint x="38" y="-637" as="targetPoint" />
          </mxGeometry>
        </mxCell>
        <mxCell id="YyInhOESzA7-MwsJwhBT-57" value="" style="fontSize=12;html=1;endArrow=blockThin;endFill=1;rounded=0;strokeWidth=2;endSize=4;startSize=4;dashed=0;strokeColor=#4284F3;exitX=0.988;exitY=0.587;exitDx=0;exitDy=0;edgeStyle=elbowEdgeStyle;exitPerimeter=0;" edge="1" parent="YyInhOESzA7-MwsJwhBT-1" source="YyInhOESzA7-MwsJwhBT-9" target="YyInhOESzA7-MwsJwhBT-32">
          <mxGeometry width="100" relative="1" as="geometry">
            <mxPoint x="-238" y="-440.5" as="sourcePoint" />
            <mxPoint x="-170" y="-537.5" as="targetPoint" />
          </mxGeometry>
        </mxCell>
        <mxCell id="YyInhOESzA7-MwsJwhBT-58" value="" style="fontSize=12;html=1;endArrow=blockThin;endFill=1;rounded=0;strokeWidth=2;endSize=4;startSize=4;dashed=0;strokeColor=#4284F3;entryX=0;entryY=0.5;entryDx=0;entryDy=0;exitX=0.5;exitY=0;exitDx=0;exitDy=0;edgeStyle=orthogonalEdgeStyle;" edge="1" parent="YyInhOESzA7-MwsJwhBT-1" source="YyInhOESzA7-MwsJwhBT-32" target="YyInhOESzA7-MwsJwhBT-39">
          <mxGeometry width="100" relative="1" as="geometry">
            <mxPoint x="-100" y="-435.5" as="sourcePoint" />
            <mxPoint x="-100" y="-367.5" as="targetPoint" />
          </mxGeometry>
        </mxCell>
        <mxCell id="YyInhOESzA7-MwsJwhBT-59" value="" style="fontSize=12;html=1;endArrow=blockThin;endFill=1;rounded=0;strokeWidth=2;endSize=4;startSize=4;dashed=0;strokeColor=#4284F3;entryX=0;entryY=0.5;entryDx=0;entryDy=0;exitX=1;exitY=0.5;exitDx=0;exitDy=0;edgeStyle=orthogonalEdgeStyle;" edge="1" parent="YyInhOESzA7-MwsJwhBT-1" source="YyInhOESzA7-MwsJwhBT-32" target="YyInhOESzA7-MwsJwhBT-29">
          <mxGeometry width="100" relative="1" as="geometry">
            <mxPoint x="-88" y="-360" as="sourcePoint" />
            <mxPoint x="40" y="-360" as="targetPoint" />
          </mxGeometry>
        </mxCell>
        <mxCell id="YyInhOESzA7-MwsJwhBT-60" value="" style="fontSize=12;html=1;endArrow=blockThin;endFill=1;rounded=0;strokeWidth=2;endSize=4;startSize=4;dashed=0;strokeColor=#4284F3;entryX=0;entryY=0.5;entryDx=0;entryDy=0;exitX=1;exitY=0.5;exitDx=0;exitDy=0;edgeStyle=elbowEdgeStyle;" edge="1" parent="YyInhOESzA7-MwsJwhBT-1" source="YyInhOESzA7-MwsJwhBT-35" target="YyInhOESzA7-MwsJwhBT-22">
          <mxGeometry width="100" relative="1" as="geometry">
            <mxPoint x="150.5" y="-580" as="sourcePoint" />
            <mxPoint x="219.5" y="-632" as="targetPoint" />
          </mxGeometry>
        </mxCell>
        <mxCell id="YyInhOESzA7-MwsJwhBT-61" value="" style="fontSize=12;html=1;endArrow=blockThin;endFill=1;rounded=0;strokeWidth=2;endSize=4;startSize=4;dashed=0;strokeColor=#4284F3;edgeStyle=elbowEdgeStyle;entryX=0;entryY=0.5;entryDx=0;entryDy=0;exitX=0.5;exitY=1;exitDx=0;exitDy=0;" edge="1" parent="YyInhOESzA7-MwsJwhBT-1" source="YyInhOESzA7-MwsJwhBT-35" target="YyInhOESzA7-MwsJwhBT-63">
          <mxGeometry width="100" relative="1" as="geometry">
            <mxPoint x="153" y="-582" as="sourcePoint" />
            <mxPoint x="248.5" y="-407.5" as="targetPoint" />
            <Array as="points">
              <mxPoint x="70" y="-420" />
            </Array>
          </mxGeometry>
        </mxCell>
        <mxCell id="YyInhOESzA7-MwsJwhBT-62" value="" style="group" vertex="1" connectable="0" parent="YyInhOESzA7-MwsJwhBT-1">
          <mxGeometry x="330" y="-422" width="70" height="85" as="geometry" />
        </mxCell>
        <mxCell id="YyInhOESzA7-MwsJwhBT-63" value="Load Balance" style="strokeColor=#dddddd;shadow=1;strokeWidth=1;rounded=1;absoluteArcSize=1;arcSize=2;labelPosition=center;verticalLabelPosition=middle;align=center;verticalAlign=bottom;spacingLeft=0;fontColor=#999999;fontSize=12;whiteSpace=wrap;spacingBottom=2;html=1;container=0;" vertex="1" parent="YyInhOESzA7-MwsJwhBT-62">
          <mxGeometry width="70" height="85" as="geometry" />
        </mxCell>
        <mxCell id="YyInhOESzA7-MwsJwhBT-64" value="" style="sketch=0;aspect=fixed;pointerEvents=1;shadow=0;dashed=0;html=1;strokeColor=none;labelPosition=center;verticalLabelPosition=bottom;verticalAlign=top;align=center;fillColor=#8A8A8A;shape=mxgraph.azure.load_balancer_generic" vertex="1" parent="YyInhOESzA7-MwsJwhBT-62">
          <mxGeometry x="20.200000000000045" y="12.5" width="29.6" height="40" as="geometry" />
        </mxCell>
        <mxCell id="YyInhOESzA7-MwsJwhBT-65" value="" style="fontSize=12;html=1;endArrow=blockThin;endFill=1;rounded=0;strokeWidth=2;endSize=4;startSize=4;dashed=0;strokeColor=#4284F3;exitX=0.5;exitY=0;exitDx=0;exitDy=0;edgeStyle=elbowEdgeStyle;entryX=0;entryY=0.5;entryDx=0;entryDy=0;" edge="1" parent="YyInhOESzA7-MwsJwhBT-1" source="YyInhOESzA7-MwsJwhBT-29" target="YyInhOESzA7-MwsJwhBT-63">
          <mxGeometry width="100" relative="1" as="geometry">
            <mxPoint x="155.5" y="-321.5" as="sourcePoint" />
            <mxPoint x="330" y="-426.5" as="targetPoint" />
            <Array as="points">
              <mxPoint x="66" y="-350" />
            </Array>
          </mxGeometry>
        </mxCell>
        <mxCell id="YyInhOESzA7-MwsJwhBT-66" value="" style="fontSize=12;html=1;endArrow=blockThin;endFill=1;rounded=0;strokeWidth=2;endSize=4;startSize=4;dashed=0;strokeColor=#4284F3;entryX=0;entryY=0.5;entryDx=0;entryDy=0;exitX=1;exitY=0.5;exitDx=0;exitDy=0;edgeStyle=elbowEdgeStyle;" edge="1" parent="YyInhOESzA7-MwsJwhBT-1" source="YyInhOESzA7-MwsJwhBT-28" target="YyInhOESzA7-MwsJwhBT-25">
          <mxGeometry width="100" relative="1" as="geometry">
            <mxPoint x="160" y="-260" as="sourcePoint" />
            <mxPoint x="250" y="-295" as="targetPoint" />
          </mxGeometry>
        </mxCell>
        <mxCell id="YyInhOESzA7-MwsJwhBT-67" value="" style="fontSize=12;html=1;endArrow=blockThin;endFill=1;rounded=0;strokeWidth=2;endSize=4;startSize=4;dashed=0;strokeColor=#4284F3;entryX=0.032;entryY=0.451;entryDx=0;entryDy=0;exitX=1;exitY=0.5;exitDx=0;exitDy=0;edgeStyle=elbowEdgeStyle;entryPerimeter=0;" edge="1" parent="YyInhOESzA7-MwsJwhBT-1" source="YyInhOESzA7-MwsJwhBT-63" target="YyInhOESzA7-MwsJwhBT-41">
          <mxGeometry width="100" relative="1" as="geometry">
            <mxPoint x="310" y="-322.5" as="sourcePoint" />
            <mxPoint x="400" y="-468.5" as="targetPoint" />
          </mxGeometry>
        </mxCell>
        <mxCell id="YyInhOESzA7-MwsJwhBT-68" value="" style="fontSize=12;html=1;endArrow=blockThin;endFill=1;rounded=0;strokeWidth=2;endSize=4;startSize=4;dashed=0;strokeColor=#4284F3;entryX=1;entryY=0.5;entryDx=0;entryDy=0;exitX=0.5;exitY=0;exitDx=0;exitDy=0;edgeStyle=orthogonalEdgeStyle;" edge="1" parent="YyInhOESzA7-MwsJwhBT-1" source="YyInhOESzA7-MwsJwhBT-29" target="YyInhOESzA7-MwsJwhBT-39">
          <mxGeometry width="100" relative="1" as="geometry">
            <mxPoint y="-385" as="sourcePoint" />
            <mxPoint y="-465" as="targetPoint" />
          </mxGeometry>
        </mxCell>
        <mxCell id="YyInhOESzA7-MwsJwhBT-69" value="" style="fontSize=12;html=1;endArrow=blockThin;endFill=1;rounded=0;strokeWidth=2;endSize=4;startSize=4;dashed=0;strokeColor=#4284F3;entryX=1;entryY=0.5;entryDx=0;entryDy=0;edgeStyle=orthogonalEdgeStyle;exitX=0.5;exitY=1;exitDx=0;exitDy=0;" edge="1" parent="YyInhOESzA7-MwsJwhBT-1" source="YyInhOESzA7-MwsJwhBT-35" target="YyInhOESzA7-MwsJwhBT-39">
          <mxGeometry width="100" relative="1" as="geometry">
            <mxPoint x="80" y="-600" as="sourcePoint" />
            <mxPoint x="-90" y="-464" as="targetPoint" />
          </mxGeometry>
        </mxCell>
        <mxCell id="YyInhOESzA7-MwsJwhBT-70" value="" style="group" vertex="1" connectable="0" parent="YyInhOESzA7-MwsJwhBT-1">
          <mxGeometry x="160" y="-650" width="250" height="60" as="geometry" />
        </mxCell>
        <mxCell id="YyInhOESzA7-MwsJwhBT-71" value="Serviço de Coleta de Logs" style="dashed=0;strokeColor=#dddddd;shadow=1;strokeWidth=1;labelPosition=center;verticalLabelPosition=middle;align=center;verticalAlign=middle;spacingLeft=5;fontSize=12;whiteSpace=wrap;fontStyle=1;movable=1;resizable=1;rotatable=1;deletable=1;editable=1;locked=0;connectable=1;" vertex="1" parent="YyInhOESzA7-MwsJwhBT-70">
          <mxGeometry width="235.2941176470588" height="50" as="geometry" />
        </mxCell>
        <mxCell id="YyInhOESzA7-MwsJwhBT-72" value="" style="group" vertex="1" connectable="0" parent="YyInhOESzA7-MwsJwhBT-1">
          <mxGeometry x="-112" y="-650" width="250" height="60" as="geometry" />
        </mxCell>
        <mxCell id="YyInhOESzA7-MwsJwhBT-73" value="Serviço de Monitoramento&#xa;e Análise de Métricas" style="dashed=0;strokeColor=#dddddd;shadow=1;strokeWidth=1;labelPosition=center;verticalLabelPosition=middle;align=center;verticalAlign=middle;spacingLeft=5;fontSize=12;whiteSpace=wrap;fontStyle=1;movable=1;resizable=1;rotatable=1;deletable=1;editable=1;locked=0;connectable=1;" vertex="1" parent="YyInhOESzA7-MwsJwhBT-72">
          <mxGeometry width="235.2941176470588" height="50" as="geometry" />
        </mxCell>
        <mxCell id="YyInhOESzA7-MwsJwhBT-74" value="" style="edgeStyle=orthogonalEdgeStyle;fontSize=12;html=1;endArrow=blockThin;endFill=1;rounded=0;strokeWidth=2;endSize=4;startSize=4;dashed=0;strokeColor=#4284F3;entryX=0;entryY=0.5;entryDx=0;entryDy=0;exitX=1;exitY=0.5;exitDx=0;exitDy=0;" edge="1" parent="YyInhOESzA7-MwsJwhBT-1" source="YyInhOESzA7-MwsJwhBT-43" target="YyInhOESzA7-MwsJwhBT-13">
          <mxGeometry width="100" relative="1" as="geometry">
            <mxPoint x="-781" y="-616" as="sourcePoint" />
            <mxPoint x="-645" y="-440" as="targetPoint" />
          </mxGeometry>
        </mxCell>
        <mxCell id="YyInhOESzA7-MwsJwhBT-75" value="" style="edgeStyle=orthogonalEdgeStyle;fontSize=12;html=1;endArrow=blockThin;endFill=1;rounded=0;strokeWidth=2;endSize=4;startSize=4;dashed=0;strokeColor=#4284F3;entryX=0;entryY=0.5;entryDx=0;entryDy=0;exitX=1;exitY=0.5;exitDx=0;exitDy=0;" edge="1" parent="YyInhOESzA7-MwsJwhBT-1" source="YyInhOESzA7-MwsJwhBT-44" target="YyInhOESzA7-MwsJwhBT-13">
          <mxGeometry width="100" relative="1" as="geometry">
            <mxPoint x="-780" y="-517" as="sourcePoint" />
            <mxPoint x="-645" y="-440" as="targetPoint" />
          </mxGeometry>
        </mxCell>
        <mxCell id="YyInhOESzA7-MwsJwhBT-76" value="" style="edgeStyle=orthogonalEdgeStyle;fontSize=12;html=1;endArrow=blockThin;endFill=1;rounded=0;strokeWidth=2;endSize=4;startSize=4;dashed=0;strokeColor=#4284F3;entryX=0;entryY=0.5;entryDx=0;entryDy=0;exitX=1;exitY=0.5;exitDx=0;exitDy=0;" edge="1" parent="YyInhOESzA7-MwsJwhBT-1" source="YyInhOESzA7-MwsJwhBT-48" target="YyInhOESzA7-MwsJwhBT-13">
          <mxGeometry width="100" relative="1" as="geometry">
            <mxPoint x="-780" y="-400" as="sourcePoint" />
            <mxPoint x="-645" y="-440" as="targetPoint" />
          </mxGeometry>
        </mxCell>
        <mxCell id="YyInhOESzA7-MwsJwhBT-77" value="" style="fontSize=12;html=1;endArrow=blockThin;endFill=1;rounded=0;strokeWidth=2;endSize=4;startSize=4;dashed=0;strokeColor=#4284F3;entryX=0.017;entryY=0.476;entryDx=0;entryDy=0;exitX=1.005;exitY=0.726;exitDx=0;exitDy=0;edgeStyle=orthogonalEdgeStyle;entryPerimeter=0;exitPerimeter=0;" edge="1" parent="YyInhOESzA7-MwsJwhBT-1" source="YyInhOESzA7-MwsJwhBT-9" target="YyInhOESzA7-MwsJwhBT-46">
          <mxGeometry width="100" relative="1" as="geometry">
            <mxPoint x="-280" y="-187.84" as="sourcePoint" />
            <mxPoint x="-166" y="-187.84" as="targetPoint" />
          </mxGeometry>
        </mxCell>
        <mxCell id="YyInhOESzA7-MwsJwhBT-78" value="" style="fontSize=12;html=1;endArrow=blockThin;endFill=1;rounded=0;strokeWidth=2;endSize=4;startSize=4;dashed=0;strokeColor=#4284F3;exitX=0.5;exitY=0;exitDx=0;exitDy=0;edgeStyle=elbowEdgeStyle;" edge="1" parent="YyInhOESzA7-MwsJwhBT-1" source="YyInhOESzA7-MwsJwhBT-22" target="YyInhOESzA7-MwsJwhBT-7">
          <mxGeometry width="100" relative="1" as="geometry">
            <mxPoint x="70.5" y="-530" as="sourcePoint" />
            <mxPoint x="129.5" y="-530" as="targetPoint" />
          </mxGeometry>
        </mxCell>
        <mxCell id="YyInhOESzA7-MwsJwhBT-79" value="" style="fontSize=12;html=1;endArrow=blockThin;endFill=1;rounded=0;strokeWidth=2;endSize=4;startSize=4;dashed=0;strokeColor=#4284F3;exitX=0.537;exitY=-0.001;exitDx=0;exitDy=0;edgeStyle=elbowEdgeStyle;exitPerimeter=0;" edge="1" parent="YyInhOESzA7-MwsJwhBT-1" source="YyInhOESzA7-MwsJwhBT-36" target="YyInhOESzA7-MwsJwhBT-7">
          <mxGeometry width="100" relative="1" as="geometry">
            <mxPoint x="65.38" y="-517.5" as="sourcePoint" />
            <mxPoint x="65.38" y="-562.5" as="targetPoint" />
          </mxGeometry>
        </mxCell>
        <mxCell id="YyInhOESzA7-MwsJwhBT-80" value="" style="fontSize=12;html=1;endArrow=blockThin;endFill=1;rounded=0;strokeWidth=2;endSize=4;startSize=4;dashed=0;strokeColor=#4284F3;entryX=0.689;entryY=0.015;entryDx=0;entryDy=0;exitX=0.5;exitY=1;exitDx=0;exitDy=0;edgeStyle=orthogonalEdgeStyle;entryPerimeter=0;" edge="1" parent="YyInhOESzA7-MwsJwhBT-1" source="YyInhOESzA7-MwsJwhBT-25" target="YyInhOESzA7-MwsJwhBT-83">
          <mxGeometry width="100" relative="1" as="geometry">
            <mxPoint x="206.5" y="-160" as="sourcePoint" />
            <mxPoint x="320.5" y="-160" as="targetPoint" />
          </mxGeometry>
        </mxCell>
        <mxCell id="YyInhOESzA7-MwsJwhBT-81" value="" style="fontSize=12;html=1;endArrow=blockThin;endFill=1;rounded=0;strokeWidth=2;endSize=4;startSize=4;dashed=0;strokeColor=#4284F3;entryX=0.37;entryY=0.003;entryDx=0;entryDy=0;exitX=0.5;exitY=1;exitDx=0;exitDy=0;edgeStyle=orthogonalEdgeStyle;entryPerimeter=0;" edge="1" parent="YyInhOESzA7-MwsJwhBT-1" source="YyInhOESzA7-MwsJwhBT-28" target="YyInhOESzA7-MwsJwhBT-83">
          <mxGeometry width="100" relative="1" as="geometry">
            <mxPoint x="59.56999999999999" y="-237.5" as="sourcePoint" />
            <mxPoint x="59.56999999999999" y="-126.5" as="targetPoint" />
          </mxGeometry>
        </mxCell>
        <mxCell id="YyInhOESzA7-MwsJwhBT-82" value="Parceiros" style="strokeColor=#dddddd;shadow=1;strokeWidth=1;rounded=1;absoluteArcSize=1;arcSize=2;labelPosition=center;verticalLabelPosition=middle;align=center;verticalAlign=bottom;spacingLeft=0;fontColor=#999999;fontSize=12;whiteSpace=wrap;spacingBottom=2;html=1;container=0;" vertex="1" parent="YyInhOESzA7-MwsJwhBT-1">
          <mxGeometry x="-828.0699999999999" y="-205" width="70" height="85" as="geometry" />
        </mxCell>
        <mxCell id="YyInhOESzA7-MwsJwhBT-83" value="Telemetria" style="sketch=0;points=[[0,0,0],[0.25,0,0],[0.5,0,0],[0.75,0,0],[1,0,0],[1,0.25,0],[1,0.5,0],[1,0.75,0],[1,1,0],[0.75,1,0],[0.5,1,0],[0.25,1,0],[0,1,0],[0,0.75,0],[0,0.5,0],[0,0.25,0]];rounded=1;absoluteArcSize=1;arcSize=2;html=1;strokeColor=default;gradientColor=none;shadow=0;dashed=1;fontSize=12;fontColor=#9E9E9E;align=center;verticalAlign=bottom;spacing=10;spacingTop=-4;whiteSpace=wrap;fillColor=none;fontStyle=1;movable=1;resizable=1;rotatable=1;deletable=1;editable=1;locked=0;connectable=1;" vertex="1" parent="YyInhOESzA7-MwsJwhBT-1">
          <mxGeometry x="-122" y="-120" width="532" height="120" as="geometry" />
        </mxCell>
        <mxCell id="YyInhOESzA7-MwsJwhBT-84" value="" style="group" vertex="1" connectable="0" parent="YyInhOESzA7-MwsJwhBT-1">
          <mxGeometry x="160" y="-90" width="250" height="60" as="geometry" />
        </mxCell>
        <mxCell id="YyInhOESzA7-MwsJwhBT-85" value="Serviço de Coleta de Logs" style="dashed=0;strokeColor=#dddddd;shadow=1;strokeWidth=1;labelPosition=center;verticalLabelPosition=middle;align=center;verticalAlign=middle;spacingLeft=5;fontSize=12;whiteSpace=wrap;fontStyle=1;movable=1;resizable=1;rotatable=1;deletable=1;editable=1;locked=0;connectable=1;" vertex="1" parent="YyInhOESzA7-MwsJwhBT-84">
          <mxGeometry width="235.2941176470588" height="50" as="geometry" />
        </mxCell>
        <mxCell id="YyInhOESzA7-MwsJwhBT-86" value="" style="group" vertex="1" connectable="0" parent="YyInhOESzA7-MwsJwhBT-1">
          <mxGeometry x="-112" y="-90" width="250" height="60" as="geometry" />
        </mxCell>
        <mxCell id="YyInhOESzA7-MwsJwhBT-87" value="Serviço de Monitoramento&#xa;e Análise de Métricas" style="dashed=0;strokeColor=#dddddd;shadow=1;strokeWidth=1;labelPosition=center;verticalLabelPosition=middle;align=center;verticalAlign=middle;spacingLeft=5;fontSize=12;whiteSpace=wrap;fontStyle=1;movable=1;resizable=1;rotatable=1;deletable=1;editable=1;locked=0;connectable=1;" vertex="1" parent="YyInhOESzA7-MwsJwhBT-86">
          <mxGeometry width="235.2941176470588" height="50" as="geometry" />
        </mxCell>
        <mxCell id="YyInhOESzA7-MwsJwhBT-88" value="" style="edgeStyle=orthogonalEdgeStyle;fontSize=12;html=1;endArrow=blockThin;endFill=1;rounded=0;strokeWidth=2;endSize=4;startSize=4;dashed=0;strokeColor=#4284F3;exitX=1;exitY=0.5;exitDx=0;exitDy=0;entryX=0;entryY=0.5;entryDx=0;entryDy=0;" edge="1" parent="YyInhOESzA7-MwsJwhBT-1" source="YyInhOESzA7-MwsJwhBT-82" target="YyInhOESzA7-MwsJwhBT-13">
          <mxGeometry width="100" relative="1" as="geometry">
            <mxPoint x="-748" y="-270" as="sourcePoint" />
            <mxPoint x="-660" y="-450" as="targetPoint" />
          </mxGeometry>
        </mxCell>
        <mxCell id="YyInhOESzA7-MwsJwhBT-89" value="" style="fontSize=12;html=1;endArrow=blockThin;endFill=1;rounded=0;strokeWidth=2;endSize=4;startSize=4;dashed=0;strokeColor=#4284F3;entryX=-0.002;entryY=0.564;entryDx=0;entryDy=0;exitX=1.006;exitY=0.099;exitDx=0;exitDy=0;edgeStyle=orthogonalEdgeStyle;entryPerimeter=0;exitPerimeter=0;" edge="1" parent="YyInhOESzA7-MwsJwhBT-1" source="YyInhOESzA7-MwsJwhBT-9" target="YyInhOESzA7-MwsJwhBT-7">
          <mxGeometry width="100" relative="1" as="geometry">
            <mxPoint x="-234.5" y="-620.56" as="sourcePoint" />
            <mxPoint x="-128.5" y="-620.56" as="targetPoint" />
          </mxGeometry>
        </mxCell>
        <mxCell id="YyInhOESzA7-MwsJwhBT-90" value="" style="fontSize=12;html=1;endArrow=blockThin;endFill=1;rounded=0;strokeWidth=2;endSize=4;startSize=4;dashed=0;strokeColor=#4284F3;exitX=1.026;exitY=0.911;exitDx=0;exitDy=0;edgeStyle=orthogonalEdgeStyle;exitPerimeter=0;entryX=0.004;entryY=0.485;entryDx=0;entryDy=0;entryPerimeter=0;" edge="1" parent="YyInhOESzA7-MwsJwhBT-1" source="YyInhOESzA7-MwsJwhBT-9" target="YyInhOESzA7-MwsJwhBT-83">
          <mxGeometry width="100" relative="1" as="geometry">
            <mxPoint x="-245" y="-60.5" as="sourcePoint" />
            <mxPoint x="-120" y="-60" as="targetPoint" />
          </mxGeometry>
        </mxCell>
        <mxCell id="YyInhOESzA7-MwsJwhBT-91" value="" style="fontSize=12;html=1;endArrow=blockThin;endFill=1;rounded=0;strokeWidth=2;endSize=4;startSize=4;dashed=0;strokeColor=#4284F3;entryX=0;entryY=0.5;entryDx=0;entryDy=0;exitX=1;exitY=0.5;exitDx=0;exitDy=0;edgeStyle=orthogonalEdgeStyle;" edge="1" parent="YyInhOESzA7-MwsJwhBT-1" source="YyInhOESzA7-MwsJwhBT-73" target="YyInhOESzA7-MwsJwhBT-71">
          <mxGeometry width="100" relative="1" as="geometry">
            <mxPoint x="110" y="-580" as="sourcePoint" />
            <mxPoint x="233" y="-580" as="targetPoint" />
          </mxGeometry>
        </mxCell>
        <mxCell id="YyInhOESzA7-MwsJwhBT-92" value="" style="fontSize=12;html=1;endArrow=blockThin;endFill=1;rounded=0;strokeWidth=2;endSize=4;startSize=4;dashed=0;strokeColor=#4284F3;exitX=1;exitY=0.5;exitDx=0;exitDy=0;edgeStyle=orthogonalEdgeStyle;" edge="1" parent="YyInhOESzA7-MwsJwhBT-1" source="YyInhOESzA7-MwsJwhBT-87" target="YyInhOESzA7-MwsJwhBT-85">
          <mxGeometry width="100" relative="1" as="geometry">
            <mxPoint x="125.5" y="-60.30000000000001" as="sourcePoint" />
            <mxPoint x="160" y="-60" as="targetPoint" />
          </mxGeometry>
        </mxCell>
        <mxCell id="YyInhOESzA7-MwsJwhBT-93" value="" style="fontSize=12;html=1;endArrow=blockThin;endFill=1;rounded=0;strokeWidth=2;endSize=4;startSize=4;dashed=0;strokeColor=#4284F3;entryX=1;entryY=0.5;entryDx=0;entryDy=0;edgeStyle=elbowEdgeStyle;entryPerimeter=0;" edge="1" parent="YyInhOESzA7-MwsJwhBT-1" target="YyInhOESzA7-MwsJwhBT-7">
          <mxGeometry width="100" relative="1" as="geometry">
            <mxPoint x="490" y="-630" as="sourcePoint" />
            <mxPoint x="410" y="-595.26" as="targetPoint" />
          </mxGeometry>
        </mxCell>
        <mxCell id="YyInhOESzA7-MwsJwhBT-94" value="" style="fontSize=12;html=1;endArrow=blockThin;endFill=1;rounded=0;strokeWidth=2;endSize=4;startSize=4;dashed=0;strokeColor=#4284F3;entryX=1;entryY=0.5;entryDx=0;entryDy=0;edgeStyle=elbowEdgeStyle;entryPerimeter=0;exitX=0.055;exitY=0.912;exitDx=0;exitDy=0;exitPerimeter=0;" edge="1" parent="YyInhOESzA7-MwsJwhBT-1" source="YyInhOESzA7-MwsJwhBT-41" target="YyInhOESzA7-MwsJwhBT-83">
          <mxGeometry width="100" relative="1" as="geometry">
            <mxPoint x="480" y="-60" as="sourcePoint" />
            <mxPoint x="420" y="-60.260000000000005" as="targetPoint" />
          </mxGeometry>
        </mxCell>
        <mxCell id="YyInhOESzA7-MwsJwhBT-95" value="" style="edgeStyle=orthogonalEdgeStyle;fontSize=12;html=1;endArrow=blockThin;endFill=1;rounded=0;strokeWidth=2;endSize=4;startSize=4;dashed=0;strokeColor=#4284F3;exitX=0.989;exitY=0.484;exitDx=0;exitDy=0;entryX=0;entryY=0.5;entryDx=0;entryDy=0;exitPerimeter=0;" edge="1" parent="YyInhOESzA7-MwsJwhBT-1" source="YyInhOESzA7-MwsJwhBT-41" target="YyInhOESzA7-MwsJwhBT-98">
          <mxGeometry width="100" relative="1" as="geometry">
            <mxPoint x="560" y="-52" as="sourcePoint" />
            <mxPoint x="663" y="-340" as="targetPoint" />
          </mxGeometry>
        </mxCell>
        <mxCell id="YyInhOESzA7-MwsJwhBT-96" value="" style="edgeStyle=orthogonalEdgeStyle;fontSize=12;html=1;endArrow=blockThin;endFill=1;rounded=0;strokeWidth=2;endSize=4;startSize=4;dashed=0;strokeColor=#4284F3;exitX=0.994;exitY=0.484;exitDx=0;exitDy=0;entryX=0;entryY=0.5;entryDx=0;entryDy=0;exitPerimeter=0;" edge="1" parent="YyInhOESzA7-MwsJwhBT-1" source="YyInhOESzA7-MwsJwhBT-41" target="YyInhOESzA7-MwsJwhBT-99">
          <mxGeometry width="100" relative="1" as="geometry">
            <mxPoint x="542" y="-345" as="sourcePoint" />
            <mxPoint x="650" y="-345" as="targetPoint" />
          </mxGeometry>
        </mxCell>
        <mxCell id="YyInhOESzA7-MwsJwhBT-97" value="ETF" style="strokeColor=#dddddd;shadow=1;strokeWidth=1;rounded=1;absoluteArcSize=1;arcSize=2;labelPosition=center;verticalLabelPosition=middle;align=center;verticalAlign=bottom;spacingLeft=0;fontColor=#999999;fontSize=12;whiteSpace=wrap;spacingBottom=2;html=1;container=0;" vertex="1" parent="YyInhOESzA7-MwsJwhBT-1">
          <mxGeometry x="640" y="-546.25" width="70" height="85" as="geometry" />
        </mxCell>
        <mxCell id="YyInhOESzA7-MwsJwhBT-98" value="Exchanges" style="strokeColor=#dddddd;shadow=1;strokeWidth=1;rounded=1;absoluteArcSize=1;arcSize=2;labelPosition=center;verticalLabelPosition=middle;align=center;verticalAlign=bottom;spacingLeft=0;fontColor=#999999;fontSize=12;whiteSpace=wrap;spacingBottom=2;html=1;container=0;" vertex="1" parent="YyInhOESzA7-MwsJwhBT-1">
          <mxGeometry x="640" y="-397.75" width="70" height="85" as="geometry" />
        </mxCell>
        <mxCell id="YyInhOESzA7-MwsJwhBT-99" value="Parceiros" style="strokeColor=#dddddd;shadow=1;strokeWidth=1;rounded=1;absoluteArcSize=1;arcSize=2;labelPosition=center;verticalLabelPosition=middle;align=center;verticalAlign=bottom;spacingLeft=0;fontColor=#999999;fontSize=12;whiteSpace=wrap;spacingBottom=2;html=1;container=0;" vertex="1" parent="YyInhOESzA7-MwsJwhBT-1">
          <mxGeometry x="640" y="-248.75" width="70" height="85" as="geometry" />
        </mxCell>
        <mxCell id="YyInhOESzA7-MwsJwhBT-100" value="" style="edgeStyle=orthogonalEdgeStyle;fontSize=12;html=1;endArrow=blockThin;endFill=1;rounded=0;strokeWidth=2;endSize=4;startSize=4;dashed=0;strokeColor=#4284F3;exitX=0.961;exitY=0.483;exitDx=0;exitDy=0;entryX=0;entryY=0.5;entryDx=0;entryDy=0;exitPerimeter=0;" edge="1" parent="YyInhOESzA7-MwsJwhBT-1" source="YyInhOESzA7-MwsJwhBT-41" target="YyInhOESzA7-MwsJwhBT-97">
          <mxGeometry width="100" relative="1" as="geometry">
            <mxPoint x="520" y="-454.5" as="sourcePoint" />
            <mxPoint x="630" y="-304.5" as="targetPoint" />
          </mxGeometry>
        </mxCell>
      </root>
    </mxGraphModel>
  </diagram>
</mxfile>
